<svg width="723" height="582" viewBox="0 0 723 582" fill="none" xmlns="http://www.w3.org/2000/svg">
<path d="M283.985 30.093C280.58 33.4971 275.443 33.8473 272.485 30.8905C269.527 27.9337 269.897 22.7788 273.283 19.3941L276.922 15.7564C280.327 12.3523 285.464 12.0021 288.422 14.9589C291.38 17.9157 291.029 23.0706 287.624 26.4553L283.985 30.093Z" fill="#56667D"/>
<path d="M283.83 49.137C279.335 49.4483 275.949 46.0635 276.26 41.57C276.571 37.0765 280.463 33.186 284.958 32.8747L289.765 32.544C294.26 32.2328 297.646 35.6175 297.334 40.1111C297.023 44.6046 293.131 48.4951 288.636 48.8063L283.83 49.137Z" fill="#56667D"/>
<path d="M270.15 64.3684C267.192 61.4116 267.542 56.2567 270.948 52.872C274.353 49.4678 279.49 49.1176 282.448 52.0744L285.62 55.2452C288.577 58.2019 288.227 63.3569 284.822 66.7416C281.416 70.1458 276.279 70.4959 273.322 67.5392L270.15 64.3684Z" fill="#56667D"/>
<path d="M250.943 66.8778C251.255 62.3842 255.147 58.4937 259.642 58.1825C264.137 57.8712 267.523 61.256 267.211 65.7495L266.88 70.5543C266.569 75.0478 262.677 78.9383 258.182 79.2496C253.687 79.5608 250.301 76.1761 250.613 71.6825L250.943 66.8778Z" fill="#56667D"/>
<path d="M237.458 55.2062C240.864 51.802 246.001 51.4518 248.959 54.4086C251.917 57.3654 251.547 62.5203 248.161 65.9051L244.522 69.5427C241.117 72.9469 235.98 73.297 233.022 70.3402C230.064 67.3835 230.414 62.2285 233.82 58.8438L237.458 55.2062Z" fill="#56667D"/>
<path d="M237.595 36.1622C242.09 35.8509 245.476 39.2357 245.164 43.7292C244.853 48.2227 240.961 52.1132 236.466 52.4245L231.66 52.7552C227.165 53.0664 223.779 49.6817 224.09 45.1881C224.402 40.6946 228.293 36.8041 232.788 36.4929L237.595 36.1622Z" fill="#56667D"/>
<path d="M251.294 20.9114C254.252 23.8682 253.901 29.0231 250.496 32.4079C247.091 35.8121 241.954 36.1622 238.996 33.2054L235.824 30.0347C232.866 27.0779 233.217 21.923 236.622 18.5382C240.027 15.134 245.164 14.7839 248.122 17.7407L251.294 20.9114Z" fill="#56667D"/>
<path d="M270.5 18.402C270.189 22.8956 266.297 26.7861 261.802 27.0973C257.307 27.4085 253.921 24.0238 254.232 19.5303L254.563 14.7255C254.874 10.232 258.766 6.34146 263.261 6.03022C267.756 5.71898 271.142 9.10371 270.831 13.5972L270.5 18.402Z" fill="#56667D"/>
<path d="M286.067 32.7774C285.775 31.6103 285.386 30.482 284.88 29.4121C284.861 29.3538 284.841 29.2954 284.822 29.2565C284.043 27.5252 283.051 25.9107 281.806 24.4323C281.377 23.9071 280.949 23.4207 280.463 22.9344C278.75 21.2226 276.824 19.8609 274.742 18.8494C274.547 18.7327 274.333 18.6549 274.139 18.5576C272.991 18.0324 271.804 17.6239 270.597 17.3127C269.78 17.0987 268.943 16.9236 268.106 16.7874C267.27 16.6707 266.452 16.5735 265.616 16.5346C264.429 16.4762 263.203 16.4956 261.977 16.6124C259.428 16.8458 256.84 17.4683 254.329 18.4409C253.065 18.9272 251.819 19.5108 250.593 20.1916C250.515 20.2305 250.418 20.2694 250.34 20.3278C249.718 20.6779 249.095 21.0475 248.511 21.456C246.779 22.6037 245.145 23.946 243.607 25.4827C241.603 27.4863 239.91 29.7039 238.568 32.0188C238.47 32.1744 238.373 32.33 238.315 32.4856C238.003 33.0108 237.711 33.575 237.458 34.1196C237.128 34.8005 236.836 35.5202 236.563 36.2205C234.968 40.2666 234.364 44.4878 234.734 48.534C234.793 49.1564 234.87 49.7984 234.987 50.4208C235.104 51.1017 235.26 51.802 235.435 52.5023C235.435 52.5412 235.454 52.5801 235.474 52.619C235.785 53.8056 236.194 54.9338 236.68 56.0426C237.731 58.3575 239.19 60.4972 241.058 62.3647C241.389 62.6954 241.72 63.0066 242.07 63.2984C242.226 63.4346 242.401 63.5707 242.557 63.7264C243.666 64.6601 244.872 65.4576 246.137 66.119C246.546 66.333 246.954 66.547 247.383 66.7415C248.531 67.2473 249.698 67.6752 250.924 67.9865C254.485 68.9396 258.318 69.0369 262.113 68.3172C263.825 68.0059 265.538 67.5196 267.192 66.8582C268.204 66.4886 269.177 66.0218 270.15 65.516C270.422 65.3993 270.675 65.2437 270.928 65.088C273.399 63.7069 275.773 61.9562 277.933 59.797C279.684 58.0462 281.163 56.1788 282.389 54.2141C282.681 53.7472 282.973 53.2804 283.245 52.794C283.927 51.5685 284.51 50.3236 284.997 49.0397C285.503 47.7753 285.892 46.4914 286.184 45.1881C287.137 41.0058 287.118 36.7457 286.067 32.7774ZM254.835 36.7652C257.365 34.2363 260.77 33.2443 263.709 33.8862C265.927 37.1931 265.246 42.0757 261.899 45.4215C259.369 47.9504 255.983 48.9425 253.045 48.3005C250.807 44.9741 251.469 40.0916 254.835 36.7652Z" fill="#56667D"/>
<path d="M282.895 33.2832C282.701 32.6802 282.506 32.0772 282.253 31.4741C282 30.8517 281.728 30.2292 281.397 29.6456C281.378 29.6067 281.358 29.5872 281.358 29.5483C280.833 28.5757 280.21 27.642 279.49 26.7666C279.082 26.2414 278.634 25.7356 278.147 25.2493C276.571 23.6737 274.762 22.4287 272.816 21.5144C272.524 21.3783 272.232 21.2421 271.94 21.1448C271.356 20.8725 270.753 20.6585 270.111 20.4835C268.904 20.1139 267.64 19.861 266.355 19.7248C265.674 19.647 265.013 19.6081 264.312 19.5886C261.024 19.5497 257.618 20.1917 254.369 21.5728C253.726 21.8646 253.104 22.1564 252.462 22.4871C252.384 22.526 252.306 22.5649 252.228 22.6038C250.846 23.343 249.504 24.1989 248.239 25.2104C247.324 25.9107 246.449 26.6888 245.593 27.5253C244.328 28.7897 243.199 30.1514 242.246 31.5519C241.603 32.4857 241.039 33.4194 240.553 34.3726C240.222 34.995 239.93 35.637 239.638 36.2789C239.619 36.3178 239.599 36.3956 239.58 36.454C238.218 39.7415 237.575 43.1845 237.673 46.5109C237.692 47.4641 237.789 48.4173 237.945 49.351C238.081 50.2458 238.295 51.1406 238.548 51.9965C238.723 52.5996 238.938 53.2026 239.19 53.8056C240.125 56.101 241.506 58.2214 243.316 60.0304C243.51 60.2444 243.744 60.4389 243.939 60.6335C244.172 60.8474 244.425 61.0614 244.658 61.2559V61.2754C245.223 61.7228 245.787 62.1313 246.39 62.5398C247.383 63.1817 248.434 63.7264 249.523 64.1544C250.126 64.4267 250.71 64.6212 251.333 64.8158C252.442 65.1659 253.61 65.3993 254.777 65.5355C257.229 65.8273 259.778 65.73 262.288 65.2048C263.903 64.8741 265.499 64.3878 267.056 63.7264C267.25 63.6291 267.426 63.5513 267.62 63.4541C268.068 63.2596 268.535 63.0456 268.963 62.8121C271.415 61.5477 273.73 59.8554 275.832 57.7739C277.7 55.9065 279.257 53.8445 280.444 51.6658C280.599 51.413 280.736 51.1601 280.872 50.9072C281.203 50.2847 281.494 49.6428 281.767 49.0009C282.214 47.9115 282.604 46.8222 282.895 45.7134C284.082 41.5311 284.082 37.1932 282.895 33.2832ZM254.836 36.7652C257.365 34.2364 260.771 33.2443 263.709 33.8862C265.927 37.1932 265.246 42.0758 261.899 45.4216C259.369 47.9504 255.984 48.9425 253.045 48.3006C250.808 44.9742 251.469 40.0916 254.836 36.7652Z" fill="#56667D"/>
<path d="M271.706 37.3099C271.239 36.0455 270.5 34.8589 269.507 33.8668C268.34 32.6997 266.958 31.8827 265.44 31.4352C263.845 30.9684 262.113 30.8711 260.381 31.1629C257.774 31.6103 255.166 32.9136 253.065 35.0145C249.854 38.2242 248.55 42.5426 249.251 46.3164C249.542 47.931 250.224 49.4483 251.255 50.7127C251.449 50.985 251.683 51.2185 251.916 51.4519C254.991 54.5254 259.758 55.0895 263.981 53.2804C265.557 52.619 267.056 51.627 268.359 50.3237C269.313 49.3705 270.111 48.32 270.714 47.1918C271.59 45.6356 272.115 43.9627 272.29 42.3092C272.504 40.5779 272.29 38.8661 271.706 37.3099ZM254.835 36.7652C257.365 34.2364 260.77 33.2443 263.709 33.8863C265.927 37.1932 265.246 42.0758 261.899 45.4216C259.369 47.9504 255.983 48.9425 253.045 48.3006C250.807 44.9742 251.469 40.0916 254.835 36.7652Z" fill="#AB1D07"/>
<path d="M266.608 48.5534C263.67 51.4907 259.545 52.3467 256.334 51.0239C255.458 50.6543 254.641 50.1291 253.94 49.4482C253.59 49.0981 253.279 48.7285 253.026 48.32C255.964 48.9425 259.35 47.9698 261.88 45.441C265.227 42.0952 265.908 37.2126 263.689 33.9057C265.11 34.178 266.414 34.8588 267.464 35.9093C267.464 35.9093 267.464 35.9093 267.484 35.9287C270.753 39.1189 270.364 44.7991 266.608 48.5534Z" fill="#AB1D07"/>
<path d="M246.41 16.5151L242.343 13.7529C242.343 13.7529 241.175 13.8501 242.479 15.7565C243.783 17.6628 246.41 16.5151 246.41 16.5151Z" fill="#56667D"/>
<path d="M266.958 6.69161L262.697 3.77373C262.697 3.77373 261.238 4.97978 262.697 6.69161C264.156 8.40343 264.662 9.12317 265.771 8.65631C266.861 8.2089 266.958 6.69161 266.958 6.69161Z" fill="#56667D"/>
<path d="M287.157 13.9669L282.603 10.9323C282.603 10.9323 280.696 11.3408 282.603 13.7335C284.51 16.1261 285.522 16.5735 286.301 16.0289C287.098 15.4648 287.157 13.9669 287.157 13.9669Z" fill="#56667D"/>
<path d="M294.317 33.6722L289.511 30.4626C289.511 30.4626 287.799 30.8711 289.511 33.2054C291.223 35.5202 293.422 36.4539 294.006 36.1232C294.59 35.7925 294.317 33.6722 294.317 33.6722Z" fill="#56667D"/>
<path d="M270.013 65.4771L274.606 68.5506C274.606 68.5506 275.637 68.5895 275.306 67.4418C274.975 66.2941 274.625 64.699 272.952 63.9793C271.278 63.2595 270.013 65.4771 270.013 65.4771Z" fill="#56667D"/>
<path d="M255.341 77.4988L254.504 78.6271L248.745 74.8727C248.745 74.8727 247.324 72.7524 250.593 72.7913C253.862 72.8108 255.341 77.4988 255.341 77.4988Z" fill="#56667D"/>
<path d="M233.819 71.0017L228.312 67.189L234.578 61.7617C234.578 61.7617 238.392 66.6054 237.672 68.0255C236.933 69.4455 233.819 71.0017 233.819 71.0017Z" fill="#56667D"/>
<path d="M227.087 51.6075L222.436 48.5145L227.846 42.387C227.846 42.387 231.66 47.2306 230.94 48.6507C230.2 50.0513 227.087 51.6075 227.087 51.6075Z" fill="#56667D"/>
<path d="M279.276 26.9611C275.871 30.3653 270.733 30.7155 267.776 27.7587C264.818 24.8019 265.168 19.647 268.574 16.2622L272.212 12.6246C275.618 9.22042 280.755 8.87027 283.713 11.8271C286.67 14.7838 286.32 19.9388 282.915 23.3235L279.276 26.9611Z" fill="#64778E"/>
<path d="M279.121 46.0052C274.626 46.3164 271.24 42.9317 271.551 38.4381C271.862 33.9446 275.754 30.0541 280.249 29.7429L285.056 29.4122C289.551 29.1009 292.937 32.4857 292.625 36.9792C292.314 41.4727 288.422 45.3632 283.927 45.6745L279.121 46.0052Z" fill="#64778E"/>
<path d="M265.441 61.2365C262.483 58.2797 262.833 53.1248 266.239 49.7401C269.644 46.3359 274.781 45.9857 277.739 48.9425L280.911 52.1133C283.868 55.0701 283.499 60.225 280.113 63.6097C276.707 67.0139 271.57 67.3641 268.613 64.4073L265.441 61.2365Z" fill="#64778E"/>
<path d="M246.234 63.7459C246.546 59.2524 250.438 55.3619 254.933 55.0506C259.428 54.7394 262.814 58.1241 262.502 62.6176L262.171 67.4224C261.86 71.916 257.968 75.8065 253.473 76.1177C248.978 76.4289 245.592 73.0442 245.904 68.5507L246.234 63.7459Z" fill="#64778E"/>
<path d="M232.749 52.0549C236.155 48.6507 241.292 48.3005 244.25 51.2573C247.207 54.2141 246.857 59.369 243.452 62.7538L239.813 66.3914C236.408 69.7956 231.271 70.1457 228.313 67.1889C225.355 64.2321 225.705 59.0772 229.111 55.6925L232.749 52.0549Z" fill="#64778E"/>
<path d="M232.886 33.0109C237.381 32.6996 240.767 36.0844 240.455 40.5779C240.144 45.0714 236.252 48.9619 231.757 49.2732L226.951 49.6039C222.456 49.9151 219.07 46.5304 219.381 42.0368C219.693 37.5433 223.584 33.6528 228.079 33.3415L232.886 33.0109Z" fill="#64778E"/>
<path d="M246.585 17.7796C249.543 20.7364 249.192 25.8913 245.787 29.276C242.382 32.6802 237.245 33.0304 234.287 30.0736L231.115 26.9028C228.157 23.946 228.508 18.7911 231.913 15.4064C235.318 12.0022 240.455 11.652 243.413 14.6088L246.585 17.7796Z" fill="#64778E"/>
<path d="M265.791 15.2702C265.48 19.7637 261.588 23.6542 257.093 23.9654C252.598 24.2767 249.212 20.8919 249.523 16.3984L249.854 11.5936C250.165 7.10011 254.057 3.2096 258.552 2.89836C263.047 2.58712 266.433 5.97186 266.122 10.4654L265.791 15.2702Z" fill="#64778E"/>
<path d="M282.059 33.5945C282 32.972 281.922 32.33 281.806 31.727C281.689 31.0267 281.533 30.3264 281.358 29.6456C281.358 29.6067 281.358 29.5872 281.339 29.5483C281.027 28.3812 280.619 27.214 280.113 26.1052C279.062 23.7904 277.622 21.6506 275.754 19.7832C275.423 19.4525 275.073 19.1412 274.742 18.8495C274.586 18.7133 274.431 18.5771 274.275 18.4215C273.146 17.4878 271.94 16.6902 270.675 16.0288C270.267 15.7954 269.838 15.5814 269.43 15.4064C268.282 14.8811 267.095 14.4726 265.888 14.1614C262.327 13.2082 258.513 13.111 254.699 13.8307C252.987 14.1419 251.274 14.6283 249.62 15.2896C248.609 15.6592 247.636 16.1261 246.663 16.6319C246.39 16.7486 246.137 16.9042 245.884 17.0598C243.394 18.4409 241.039 20.1917 238.879 22.3509C237.128 24.1016 235.668 25.9691 234.423 27.9338C234.131 28.4006 233.839 28.887 233.586 29.3538C232.886 30.5793 232.321 31.8243 231.835 33.0887C231.329 34.3531 230.94 35.637 230.648 36.9403C229.636 41.142 229.655 45.4216 230.706 49.351C230.998 50.4987 231.407 51.627 231.874 52.7163C231.913 52.7552 231.932 52.833 231.952 52.8914C232.73 54.6032 233.742 56.2372 234.968 57.7156C235.415 58.2408 235.843 58.7271 236.33 59.2134C238.023 60.9253 239.949 62.2675 242.051 63.2985C242.265 63.4152 242.44 63.493 242.654 63.5903C243.802 64.096 244.97 64.524 246.196 64.8352C247.013 65.0492 247.85 65.2243 248.686 65.3604C249.523 65.4771 250.34 65.5744 251.177 65.6133C252.384 65.6717 253.61 65.6522 254.835 65.5355C257.404 65.3021 259.973 64.6796 262.463 63.707C263.728 63.2207 264.974 62.6371 266.2 61.9562C266.297 61.9173 266.375 61.859 266.472 61.8006C267.095 61.4505 267.717 61.0809 268.301 60.6918C270.033 59.5441 271.668 58.2019 273.205 56.6652C275.229 54.6421 276.902 52.4245 278.264 50.1097C278.342 49.9735 278.42 49.8179 278.517 49.6623C278.809 49.1176 279.101 48.5535 279.373 48.0088C279.704 47.3085 279.996 46.6082 280.268 45.9079C281.806 41.8812 282.428 37.66 282.059 33.5945ZM261.899 45.4021C259.369 47.931 255.984 48.9231 253.045 48.2811C250.807 44.9547 251.469 40.0916 254.835 36.7458C257.365 34.2169 260.77 33.2249 263.709 33.8668C265.927 37.1737 265.246 42.0563 261.899 45.4021Z" fill="#64778E"/>
<path d="M278.79 32.7774C278.654 31.8826 278.44 31.0072 278.187 30.1319C277.992 29.5288 277.797 28.9258 277.544 28.3228C276.61 26.0274 275.229 23.907 273.419 22.098C273.224 21.884 272.991 21.6895 272.796 21.4949C272.563 21.281 272.31 21.067 272.076 20.8724V20.853C271.512 20.4056 270.928 19.9971 270.325 19.608C269.333 18.9467 268.301 18.402 267.192 17.974C266.608 17.7017 266.005 17.4877 265.363 17.3126C264.254 16.9625 263.106 16.7291 261.938 16.5929C259.467 16.2817 256.937 16.3984 254.408 16.9236C252.812 17.2543 251.197 17.76 249.64 18.402C249.446 18.4992 249.27 18.5771 249.076 18.6743C248.628 18.8883 248.181 19.0828 247.733 19.3162C245.281 20.5807 242.966 22.273 240.864 24.3545C238.996 26.2219 237.439 28.2839 236.233 30.4625C236.097 30.7154 235.941 30.9683 235.824 31.2212C235.493 31.8437 235.202 32.4856 234.91 33.1275C234.462 34.1974 234.073 35.2868 233.801 36.415C232.633 40.6168 232.633 44.9352 233.839 48.8646C234.015 49.4677 234.229 50.0707 234.482 50.6737C234.735 51.2962 235.007 51.8992 235.338 52.5023C235.377 52.5412 235.377 52.5801 235.416 52.619C235.941 53.5916 236.564 54.5253 237.245 55.4007C237.673 55.9259 238.12 56.4122 238.607 56.8985C240.203 58.4936 241.993 59.7191 243.939 60.6334C244.231 60.7696 244.522 60.9057 244.814 61.003C245.418 61.2753 246.001 61.4699 246.624 61.6644C247.85 62.034 249.095 62.2869 250.399 62.423C251.08 62.5009 251.742 62.5592 252.423 62.5592C255.711 62.5981 259.136 61.9367 262.386 60.5751C263.028 60.2833 263.67 59.9915 264.293 59.6608C264.371 59.6219 264.429 59.583 264.507 59.5441C265.888 58.8049 267.231 57.9684 268.496 56.9763C269.411 56.2566 270.306 55.4785 271.142 54.6226C272.407 53.3582 273.536 51.977 274.509 50.5765C275.131 49.6622 275.676 48.7285 276.182 47.7753C276.513 47.1528 276.805 46.5109 277.077 45.8689C277.116 45.8106 277.116 45.7522 277.136 45.6939C278.517 42.3869 279.14 38.9438 279.043 35.6175C279.023 34.6643 278.945 33.7306 278.79 32.7774ZM254.836 36.7652C257.365 34.2363 260.771 33.2443 263.709 33.8862C265.927 37.1931 265.246 42.0757 261.899 45.4215C259.37 47.9504 255.984 48.9424 253.045 48.3005C250.808 44.9741 251.469 40.0915 254.836 36.7652Z" fill="#A0AAB6"/>
<path d="M267.484 35.8704C267.464 35.8704 267.464 35.8704 267.484 35.8704C267.173 34.217 266.491 32.7191 265.441 31.4353C265.246 31.1824 265.013 30.9489 264.799 30.735C261.724 27.642 256.957 27.0779 252.734 28.887C251.158 29.5678 249.659 30.5599 248.356 31.8632C247.402 32.8164 246.604 33.8668 246.001 34.9756C245.125 36.5513 244.6 38.2047 244.405 39.8777C244.211 41.5895 244.425 43.3013 245.009 44.8575C245.476 46.1219 246.196 47.3085 247.208 48.3006C248.356 49.4483 249.757 50.2458 251.255 50.6933C252.851 51.1796 254.583 51.2768 256.334 51.0045C258.941 50.5571 261.529 49.2732 263.65 47.1529C266.861 43.9432 268.184 39.6442 267.484 35.8704ZM261.899 45.4022C259.369 47.931 255.984 48.9231 253.045 48.2811C250.807 44.9548 251.469 40.0916 254.836 36.7458C257.365 34.217 260.771 33.2249 263.709 33.8668C265.927 37.1738 265.246 42.0563 261.899 45.4022Z" fill="#64778E"/>
<path d="M263.709 33.8667C260.771 33.2443 257.365 34.2169 254.836 36.7457C251.469 40.0915 250.808 44.9547 253.045 48.2811C251.625 48.0087 250.321 47.3473 249.27 46.2969L249.251 46.2774C245.982 43.0094 246.371 37.3487 250.127 33.6139C253.065 30.6765 257.19 29.8206 260.401 31.1434C261.277 31.513 262.094 32.0382 262.794 32.719C263.145 33.0886 263.437 33.4582 263.709 33.8667Z" fill="#56667D"/>
<path d="M254.914 96.5234C252.617 98.8188 249.154 99.0523 247.169 97.0681C245.184 95.0839 245.418 91.6019 247.714 89.326L250.166 86.875C252.462 84.5796 255.925 84.3461 257.91 86.3303C259.895 88.3145 259.662 91.7965 257.365 94.0724L254.914 96.5234Z" fill="#1D9976"/>
<path d="M254.816 109.343C251.781 109.557 249.504 107.261 249.718 104.246C249.932 101.212 252.559 98.6049 255.575 98.3909L258.825 98.1575C261.86 97.9435 264.137 100.239 263.923 103.254C263.709 106.289 261.082 108.895 258.066 109.109L254.816 109.343Z" fill="#1D9976"/>
<path d="M245.592 119.614C243.607 117.629 243.841 114.147 246.137 111.871C248.433 109.576 251.897 109.343 253.882 111.327L256.022 113.467C258.007 115.451 257.774 118.933 255.477 121.209C253.181 123.504 249.718 123.738 247.733 121.753L245.592 119.614Z" fill="#1D9976"/>
<path d="M232.652 121.306C232.866 118.291 235.493 115.665 238.509 115.451C241.545 115.237 243.822 117.532 243.608 120.547L243.374 123.796C243.16 126.83 240.533 129.437 237.517 129.651C234.481 129.865 232.205 127.57 232.419 124.554L232.652 121.306Z" fill="#1D9976"/>
<path d="M223.585 113.428C225.881 111.132 229.344 110.899 231.329 112.883C233.314 114.867 233.081 118.349 230.784 120.625L228.333 123.076C226.036 125.372 222.573 125.605 220.588 123.621C218.603 121.637 218.837 118.155 221.133 115.879L223.585 113.428Z" fill="#1D9976"/>
<path d="M223.682 100.608C226.717 100.394 228.994 102.69 228.78 105.705C228.566 108.72 225.939 111.346 222.923 111.56L219.673 111.794C216.657 112.008 214.361 109.712 214.575 106.697C214.789 103.662 217.416 101.056 220.432 100.842L223.682 100.608Z" fill="#1D9976"/>
<path d="M232.886 90.3375C234.871 92.3217 234.637 95.8037 232.341 98.0796C230.045 100.375 226.581 100.608 224.597 98.6243L222.456 96.4845C220.471 94.5004 220.705 91.0184 223.001 88.7424C225.297 86.447 228.761 86.2136 230.746 88.1977L232.886 90.3375Z" fill="#1D9976"/>
<path d="M245.826 88.6452C245.612 91.6798 242.985 94.2864 239.969 94.5004C236.933 94.7144 234.656 92.4384 234.87 89.4038L235.084 86.1553C235.298 83.1401 237.925 80.514 240.942 80.3001C243.977 80.0861 246.254 82.3815 246.04 85.3966L245.826 88.6452Z" fill="#1D9976"/>
<path d="M256.314 98.3325C256.12 97.5544 255.847 96.7958 255.517 96.0566C255.497 96.0177 255.478 95.9788 255.478 95.9593C254.952 94.7922 254.291 93.7028 253.454 92.7108C253.162 92.3606 252.87 92.0299 252.539 91.6992C251.391 90.5515 250.088 89.6178 248.687 88.9564C248.55 88.8786 248.414 88.8203 248.278 88.7619C247.5 88.4118 246.702 88.1394 245.884 87.9254C245.34 87.7698 244.775 87.6531 244.211 87.5753C243.647 87.4975 243.082 87.4197 242.537 87.4002C241.74 87.3613 240.903 87.3808 240.086 87.4586C238.354 87.6142 236.622 88.0227 234.929 88.6841C234.073 89.0148 233.236 89.4038 232.419 89.8707C232.36 89.8901 232.302 89.929 232.244 89.968C231.816 90.2014 231.407 90.4543 230.998 90.7266C229.831 91.5047 228.722 92.3995 227.69 93.4305C226.328 94.7922 225.199 96.2706 224.304 97.8462C224.246 97.9435 224.168 98.0602 224.129 98.1575C223.915 98.5271 223.721 98.8967 223.545 99.2663C223.331 99.7331 223.117 100.2 222.942 100.686C221.872 103.41 221.463 106.25 221.697 108.973C221.736 109.401 221.794 109.829 221.872 110.237C221.95 110.704 222.047 111.171 222.183 111.638C222.183 111.677 222.203 111.696 222.203 111.716C222.417 112.513 222.689 113.272 223.02 114.011C223.721 115.567 224.713 117.007 225.978 118.271C226.192 118.485 226.425 118.699 226.659 118.913C226.756 119.011 226.873 119.108 226.99 119.205C227.749 119.828 228.546 120.372 229.403 120.82C229.675 120.975 229.947 121.111 230.239 121.248C231.018 121.578 231.796 121.87 232.633 122.084C235.026 122.726 237.614 122.784 240.163 122.298C241.312 122.084 242.46 121.753 243.588 121.306C244.269 121.053 244.931 120.742 245.573 120.411C245.748 120.333 245.923 120.236 246.098 120.119C247.772 119.186 249.368 117.999 250.808 116.56C251.975 115.392 252.987 114.109 253.804 112.805C253.999 112.494 254.193 112.163 254.369 111.852C254.816 111.035 255.205 110.179 255.536 109.323C255.867 108.467 256.139 107.611 256.334 106.736C257.034 103.877 257.015 100.998 256.314 98.3325ZM235.279 101.017C236.972 99.3052 239.268 98.6438 241.253 99.0717C242.752 101.309 242.285 104.596 240.047 106.833C238.334 108.545 236.058 109.206 234.092 108.779C232.574 106.541 233.022 103.254 235.279 101.017Z" fill="#1D9976"/>
<path d="M254.174 98.6633C254.057 98.2548 253.901 97.8463 253.746 97.4572C253.571 97.0292 253.376 96.6207 253.162 96.2122C253.143 96.1928 253.142 96.1733 253.123 96.1539C252.773 95.4925 252.345 94.87 251.858 94.2864C251.586 93.9168 251.274 93.5861 250.944 93.2555C249.873 92.1856 248.667 91.3491 247.344 90.7461C247.149 90.6488 246.955 90.571 246.76 90.4932C246.371 90.3181 245.962 90.1625 245.534 90.0458C244.717 89.7929 243.88 89.6178 243.004 89.54C242.557 89.4817 242.09 89.4622 241.623 89.4428C239.404 89.4039 237.108 89.8513 234.929 90.7655C234.501 90.9601 234.073 91.1546 233.645 91.388C233.586 91.4075 233.547 91.4464 233.489 91.4658C232.555 91.9716 231.66 92.5357 230.804 93.2166C230.2 93.6834 229.597 94.2086 229.033 94.7728C228.177 95.6287 227.418 96.5429 226.776 97.4961C226.347 98.1186 225.958 98.7605 225.627 99.4025C225.413 99.8304 225.199 100.258 225.005 100.686C225.005 100.725 224.966 100.764 224.966 100.803C224.051 103.021 223.623 105.335 223.682 107.573C223.701 108.214 223.759 108.856 223.857 109.479C223.954 110.082 224.09 110.685 224.265 111.268C224.382 111.677 224.538 112.085 224.693 112.494C225.316 114.031 226.25 115.47 227.476 116.696C227.612 116.832 227.768 116.968 227.904 117.104C228.06 117.26 228.235 117.396 228.391 117.532V117.552C228.78 117.843 229.15 118.135 229.558 118.388C230.22 118.816 230.94 119.186 231.679 119.477C232.088 119.653 232.477 119.789 232.886 119.925C233.645 120.158 234.423 120.314 235.221 120.411C236.875 120.606 238.587 120.528 240.28 120.197C241.37 119.983 242.44 119.653 243.491 119.205C243.627 119.147 243.744 119.088 243.88 119.03C244.191 118.913 244.483 118.758 244.795 118.602C246.449 117.746 248.005 116.618 249.406 115.198C250.671 113.933 251.722 112.552 252.52 111.093C252.617 110.918 252.714 110.763 252.812 110.588C253.026 110.16 253.24 109.732 253.415 109.304C253.726 108.565 253.979 107.825 254.174 107.086C254.991 104.227 254.991 101.309 254.174 98.6633ZM235.279 101.017C236.972 99.3052 239.268 98.6438 241.253 99.0718C242.751 101.309 242.284 104.596 240.047 106.833C238.334 108.545 236.057 109.207 234.092 108.779C232.574 106.542 233.022 103.254 235.279 101.017Z" fill="#1D9976"/>
<path d="M246.643 101.387C246.332 100.531 245.826 99.7331 245.164 99.0717C244.386 98.2936 243.432 97.7295 242.421 97.4377C241.35 97.1265 240.183 97.0487 239.015 97.2432C237.264 97.535 235.513 98.4103 234.092 99.8304C231.932 101.99 231.056 104.907 231.524 107.436C231.718 108.526 232.185 109.537 232.886 110.393C233.022 110.568 233.178 110.724 233.333 110.899C235.415 112.961 238.607 113.35 241.448 112.144C242.498 111.696 243.53 111.016 244.405 110.14C245.048 109.498 245.573 108.779 245.982 108.039C246.565 106.989 246.916 105.861 247.052 104.752C247.169 103.585 247.032 102.418 246.643 101.387ZM235.279 101.017C236.972 99.3052 239.268 98.6438 241.253 99.0717C242.751 101.309 242.284 104.596 240.047 106.833C238.334 108.545 236.057 109.206 234.092 108.779C232.574 106.542 233.022 103.254 235.279 101.017Z" fill="#005073"/>
<path d="M243.219 108.954C241.234 110.938 238.451 111.521 236.311 110.607C235.727 110.354 235.163 110.004 234.696 109.537C234.462 109.304 234.248 109.051 234.092 108.779C236.077 109.207 238.354 108.526 240.047 106.833C242.304 104.577 242.752 101.289 241.253 99.0717C242.207 99.2663 243.082 99.7137 243.783 100.414C243.783 100.414 243.783 100.414 243.802 100.433C246.001 102.612 245.748 106.425 243.219 108.954Z" fill="#005073"/>
<path d="M229.598 87.3807L226.854 85.5132C226.854 85.5132 226.056 85.5716 226.951 86.8749C227.846 88.1393 229.598 87.3807 229.598 87.3807Z" fill="#1D9976"/>
<path d="M243.452 80.7474L240.572 78.7827C240.572 78.7827 239.599 79.5997 240.572 80.7474C241.545 81.8951 241.895 82.3814 242.635 82.0702C243.374 81.7784 243.452 80.7474 243.452 80.7474Z" fill="#1D9976"/>
<path d="M257.054 85.6689L253.999 83.6264C253.999 83.6264 252.715 83.8987 253.999 85.5133C255.283 87.1278 255.964 87.4391 256.49 87.05C257.015 86.661 257.054 85.6689 257.054 85.6689Z" fill="#1D9976"/>
<path d="M261.88 98.9355L258.63 96.7763C258.63 96.7763 257.482 97.0486 258.63 98.6243C259.778 100.2 261.257 100.803 261.646 100.589C262.055 100.356 261.88 98.9355 261.88 98.9355Z" fill="#1D9976"/>
<path d="M245.495 120.353L248.589 122.415C248.589 122.415 249.29 122.454 249.056 121.676C248.842 120.897 248.589 119.828 247.46 119.341C246.351 118.855 245.495 120.353 245.495 120.353Z" fill="#1D9976"/>
<path d="M235.63 128.445L235.065 129.204L231.173 126.675C231.173 126.675 230.22 125.255 232.419 125.274C234.637 125.294 235.63 128.445 235.63 128.445Z" fill="#1D9976"/>
<path d="M221.133 124.068L217.436 121.5L221.658 117.843C221.658 117.843 224.227 121.111 223.74 122.065C223.234 123.037 221.133 124.068 221.133 124.068Z" fill="#1D9976"/>
<path d="M216.599 111.016L213.466 108.934L217.105 104.81C217.105 104.81 219.673 108.078 219.187 109.031C218.7 109.965 216.599 111.016 216.599 111.016Z" fill="#1D9976"/>
<path d="M251.742 94.403C249.446 96.6984 245.982 96.9319 243.997 94.9477C242.012 92.9635 242.246 89.4815 244.542 87.2056L246.994 84.7546C249.29 82.4592 252.754 82.2258 254.738 84.2099C256.723 86.1941 256.49 89.6761 254.194 91.952L251.742 94.403Z" fill="#23CCA0"/>
<path d="M251.644 107.242C248.609 107.456 246.332 105.18 246.546 102.145C246.76 99.1106 249.387 96.504 252.403 96.29L255.653 96.0566C258.689 95.8426 260.965 98.138 260.751 101.153C260.537 104.188 257.91 106.794 254.894 107.008L251.644 107.242Z" fill="#23CCA0"/>
<path d="M242.42 117.493C240.436 115.509 240.669 112.027 242.965 109.751C245.261 107.456 248.725 107.222 250.71 109.206L252.85 111.346C254.835 113.33 254.602 116.812 252.306 119.088C250.009 121.384 246.546 121.617 244.561 119.633L242.42 117.493Z" fill="#23CCA0"/>
<path d="M229.48 119.186C229.694 116.17 232.321 113.544 235.338 113.33C238.373 113.116 240.65 115.412 240.436 118.427L240.222 121.676C240.008 124.691 237.381 127.317 234.365 127.531C231.329 127.745 229.052 125.449 229.266 122.434L229.48 119.186Z" fill="#23CCA0"/>
<path d="M220.413 111.307C222.709 109.012 226.173 108.778 228.157 110.763C230.142 112.747 229.909 116.229 227.613 118.505L225.161 120.956C222.865 123.251 219.401 123.485 217.416 121.5C215.431 119.516 215.665 116.034 217.961 113.758L220.413 111.307Z" fill="#23CCA0"/>
<path d="M220.51 98.4881C223.545 98.2742 225.822 100.57 225.608 103.585C225.394 106.619 222.767 109.226 219.751 109.44L216.501 109.673C213.485 109.887 211.189 107.611 211.403 104.577C211.617 101.542 214.244 98.9161 217.26 98.7216L220.51 98.4881Z" fill="#23CCA0"/>
<path d="M229.714 88.2171C231.699 90.2012 231.466 93.6833 229.169 95.9592C226.873 98.2546 223.409 98.488 221.425 96.5039L219.284 94.3641C217.299 92.3799 217.533 88.8979 219.829 86.622C222.125 84.3266 225.589 84.0932 227.574 86.0773L229.714 88.2171Z" fill="#23CCA0"/>
<path d="M242.654 86.5442C242.44 89.5788 239.813 92.1855 236.797 92.3994C233.781 92.6134 231.485 90.318 231.699 87.3029L231.932 84.0543C232.146 81.0197 234.773 78.4131 237.79 78.1991C240.825 77.9851 243.102 80.2805 242.888 83.2957L242.654 86.5442Z" fill="#23CCA0"/>
<path d="M253.61 98.8772C253.571 98.4492 253.512 98.0407 253.435 97.6128C253.357 97.1459 253.259 96.679 253.123 96.2122C253.123 96.1927 253.123 96.1733 253.123 96.1538C252.909 95.3563 252.637 94.5782 252.306 93.839C251.605 92.2633 250.632 90.8433 249.368 89.5789C249.154 89.3649 248.92 89.1509 248.687 88.9369C248.589 88.8397 248.473 88.7424 248.375 88.6451C247.616 88.0227 246.799 87.478 245.962 87.0306C245.69 86.875 245.398 86.7388 245.126 86.6026C244.347 86.2525 243.549 85.9802 242.732 85.7662C240.339 85.1242 237.77 85.0659 235.201 85.5522C234.053 85.7662 232.905 86.0969 231.777 86.5443C231.096 86.7972 230.453 87.1084 229.792 87.4391C229.617 87.5169 229.442 87.6142 229.266 87.7309C227.593 88.6646 225.997 89.8512 224.557 91.2907C223.39 92.4578 222.397 93.7223 221.561 95.045C221.366 95.3563 221.172 95.687 220.996 96.0177C220.529 96.8347 220.14 97.6711 219.809 98.527C219.479 99.3829 219.206 100.239 219.012 101.114C218.331 103.954 218.35 106.814 219.05 109.479C219.245 110.257 219.517 111.016 219.829 111.755C219.848 111.794 219.868 111.833 219.887 111.871C220.413 113.019 221.094 114.128 221.911 115.12C222.203 115.47 222.495 115.801 222.826 116.132C223.974 117.279 225.258 118.194 226.678 118.874C226.815 118.952 226.951 119.011 227.087 119.069C227.865 119.4 228.644 119.691 229.481 119.905C230.025 120.061 230.59 120.178 231.154 120.255C231.718 120.333 232.283 120.411 232.827 120.431C233.645 120.469 234.462 120.45 235.299 120.372C237.031 120.217 238.762 119.808 240.436 119.147C241.292 118.816 242.129 118.427 242.946 117.96C243.005 117.921 243.063 117.902 243.121 117.843C243.549 117.61 243.958 117.357 244.367 117.085C245.534 116.307 246.624 115.412 247.655 114.381C249.017 113.019 250.146 111.521 251.061 109.965C251.119 109.868 251.158 109.771 251.236 109.673C251.43 109.304 251.625 108.934 251.8 108.565C252.034 108.098 252.228 107.631 252.403 107.144C253.454 104.46 253.863 101.601 253.61 98.8772ZM240.047 106.833C238.334 108.545 236.058 109.206 234.092 108.778C232.594 106.541 233.042 103.254 235.299 101.017C236.992 99.3051 239.288 98.6437 241.273 99.0717C242.752 101.289 242.285 104.577 240.047 106.833Z" fill="#23CCA0"/>
<path d="M251.411 98.3325C251.314 97.7295 251.177 97.1265 251.002 96.5623C250.885 96.1538 250.73 95.7453 250.574 95.3368C249.932 93.8001 249.017 92.3606 247.791 91.1351C247.655 90.9989 247.5 90.8627 247.363 90.7266C247.208 90.5709 247.033 90.4348 246.877 90.2986V90.2792C246.488 89.9679 246.099 89.6956 245.709 89.4427C245.048 88.9953 244.347 88.6257 243.608 88.3339C243.219 88.1588 242.81 88.0032 242.382 87.8865C241.623 87.6531 240.864 87.4975 240.086 87.4002C238.432 87.1862 236.719 87.264 235.007 87.6142C233.937 87.8281 232.847 88.1783 231.796 88.6062C231.66 88.6646 231.543 88.723 231.407 88.7813C231.096 88.9175 230.804 89.0537 230.512 89.2093C228.858 90.0652 227.301 91.1934 225.881 92.594C224.616 93.8584 223.565 95.2396 222.767 96.6985C222.67 96.8736 222.573 97.0292 222.495 97.2043C222.281 97.6322 222.067 98.0602 221.892 98.4881C221.58 99.2079 221.327 99.9471 221.133 100.706C220.354 103.546 220.354 106.444 221.152 109.09C221.269 109.498 221.425 109.907 221.58 110.296C221.755 110.724 221.93 111.113 222.145 111.521C222.164 111.56 222.183 111.58 222.203 111.599C222.553 112.261 222.981 112.883 223.448 113.467C223.74 113.817 224.032 114.147 224.363 114.478C225.433 115.548 226.64 116.384 227.963 116.987C228.157 117.085 228.352 117.163 228.547 117.24C228.955 117.415 229.344 117.552 229.753 117.688C230.57 117.941 231.426 118.116 232.283 118.194C232.73 118.252 233.197 118.271 233.645 118.291C235.863 118.33 238.159 117.863 240.339 116.968C240.767 116.774 241.214 116.579 241.623 116.346C241.681 116.326 241.72 116.287 241.779 116.268C242.713 115.781 243.608 115.198 244.464 114.536C245.067 114.05 245.67 113.525 246.254 112.941C247.11 112.085 247.869 111.171 248.511 110.218C248.94 109.596 249.309 108.973 249.64 108.331C249.854 107.903 250.068 107.475 250.243 107.047C250.263 107.008 250.282 106.969 250.282 106.931C251.216 104.713 251.644 102.379 251.567 100.142C251.586 99.5969 251.528 98.9744 251.411 98.3325ZM235.279 101.017C236.972 99.3051 239.268 98.6438 241.253 99.0717C242.752 101.309 242.285 104.596 240.047 106.833C238.334 108.545 236.058 109.206 234.092 108.779C232.575 106.541 233.022 103.254 235.279 101.017Z" fill="#27E4B6"/>
<path d="M243.802 100.414C243.588 99.3051 243.141 98.2936 242.421 97.4182C242.284 97.2431 242.129 97.0875 241.993 96.9514C239.93 94.8699 236.719 94.4809 233.878 95.7064C232.827 96.1538 231.815 96.8346 230.92 97.71C230.278 98.3519 229.753 99.0717 229.325 99.8109C228.741 100.861 228.391 101.99 228.254 103.118C228.118 104.266 228.274 105.413 228.663 106.464C228.974 107.32 229.461 108.117 230.142 108.798C230.92 109.576 231.854 110.101 232.866 110.412C233.937 110.743 235.104 110.802 236.291 110.626C238.042 110.335 239.794 109.459 241.214 108.039C243.374 105.841 244.269 102.962 243.802 100.414ZM240.047 106.833C238.334 108.545 236.058 109.206 234.092 108.778C232.594 106.541 233.041 103.254 235.299 101.017C236.992 99.3051 239.288 98.6437 241.273 99.0717C242.751 101.289 242.284 104.577 240.047 106.833Z" fill="#27E4B6"/>
<path d="M241.253 99.0717C239.268 98.6437 236.972 99.3051 235.279 101.017C233.022 103.273 232.575 106.541 234.073 108.778C233.1 108.584 232.224 108.137 231.524 107.436V107.417C229.325 105.219 229.597 101.406 232.108 98.8772C234.092 96.893 236.875 96.3289 239.015 97.2237C239.599 97.4571 240.164 97.8267 240.631 98.2936C240.884 98.527 241.078 98.7799 241.253 99.0717Z" fill="#1D9976"/>
<path d="M209.224 51.0434C205.293 54.9923 199.319 55.4008 195.875 51.9772C192.45 48.5535 192.859 42.5816 196.809 38.6327L201.031 34.4115C204.962 30.4821 210.936 30.0542 214.38 33.4778C217.805 36.9014 217.396 42.8734 213.446 46.8222L209.224 51.0434Z" fill="#101728"/>
<path d="M209.048 73.1221C203.833 73.4917 199.902 69.5623 200.272 64.349C200.642 59.1358 205.156 54.6228 210.371 54.2532L215.956 53.8641C221.171 53.4945 225.102 57.4239 224.732 62.6372C224.362 67.8505 219.848 72.3635 214.633 72.7331L209.048 73.1221Z" fill="#101728"/>
<path d="M193.189 90.7849C189.764 87.3613 190.173 81.3894 194.123 77.4405C198.054 73.5111 204.028 73.0832 207.472 76.5068L211.15 80.1833C214.575 83.607 214.166 89.5789 210.216 93.5278C206.266 97.4766 200.292 97.8851 196.867 94.4615L193.189 90.7849Z" fill="#101728"/>
<path d="M170.908 93.7028C171.278 88.4895 175.793 83.9766 181.008 83.607C186.223 83.2568 190.153 87.1862 189.784 92.3801L189.394 97.9629C189.025 103.176 184.51 107.689 179.295 108.059C174.08 108.428 170.149 104.499 170.519 99.2857L170.908 93.7028Z" fill="#101728"/>
<path d="M155.264 80.1444C159.194 76.215 165.168 75.787 168.613 79.2301C172.037 82.6538 171.629 88.6257 167.678 92.5746L163.456 96.7957C159.525 100.725 153.532 101.153 150.107 97.7295C146.682 94.3058 147.091 88.3339 151.022 84.385L155.264 80.1444Z" fill="#101728"/>
<path d="M155.439 58.0658C160.654 57.6962 164.584 61.6256 164.215 66.8389C163.845 72.0522 159.33 76.5651 154.135 76.9347L148.55 77.3238C143.335 77.6934 139.404 73.764 139.774 68.5507C140.144 63.3374 144.658 58.8244 149.873 58.4548L155.439 58.0658Z" fill="#101728"/>
<path d="M171.317 40.403C174.742 43.8266 174.333 49.7985 170.383 53.7474C166.453 57.6768 160.459 58.1048 157.034 54.6811L153.357 51.0046C149.932 47.5809 150.34 41.609 154.291 37.6602C158.221 33.7307 164.215 33.3028 167.64 36.7264L171.317 40.403Z" fill="#101728"/>
<path d="M193.598 37.4851C193.228 42.6983 188.713 47.2113 183.498 47.5615C178.283 47.9311 174.353 44.0017 174.722 38.7884L175.112 33.2055C175.481 27.9922 179.996 23.4792 185.191 23.1096C190.406 22.7595 194.337 26.6889 193.967 31.8827L193.598 37.4851Z" fill="#101728"/>
<path d="M211.636 54.1559C211.286 52.8136 210.838 51.4909 210.274 50.2459C210.254 50.1681 210.216 50.1097 210.196 50.0708C209.282 48.0672 208.133 46.1998 206.693 44.4685C206.207 43.8655 205.701 43.3014 205.137 42.7372C203.152 40.7531 200.914 39.1774 198.482 38.0103C198.248 37.8741 198.015 37.7768 197.781 37.6601C196.458 37.0571 195.076 36.5902 193.675 36.2206C192.722 35.9678 191.768 35.7732 190.776 35.6176C189.803 35.4814 188.85 35.3647 187.877 35.3258C186.495 35.248 185.075 35.2869 183.654 35.4231C180.696 35.6954 177.7 36.4152 174.781 37.5434C173.302 38.1075 171.862 38.7884 170.441 39.5859C170.344 39.6248 170.247 39.6832 170.149 39.7415C169.429 40.15 168.709 40.578 168.028 41.0449C166.024 42.3676 164.117 43.9238 162.327 45.7135C159.992 48.0478 158.046 50.6155 156.489 53.2999C156.372 53.475 156.275 53.6695 156.197 53.8446C155.828 54.4671 155.497 55.109 155.205 55.7315C154.816 56.5291 154.485 57.3461 154.174 58.1631C152.325 62.8511 151.624 67.7532 152.033 72.4412C152.111 73.161 152.189 73.9002 152.325 74.6199C152.461 75.4175 152.636 76.215 152.85 77.0126C152.85 77.0709 152.87 77.1098 152.889 77.1682C153.259 78.5299 153.726 79.8332 154.29 81.1365C155.516 83.821 157.209 86.3109 159.369 88.4701C159.758 88.8592 160.128 89.2093 160.537 89.5595C160.712 89.7151 160.926 89.8901 161.101 90.0458C162.385 91.1157 163.786 92.0494 165.246 92.808C165.713 93.0609 166.199 93.2943 166.686 93.5278C168.009 94.1113 169.371 94.5977 170.792 94.9673C174.917 96.076 179.373 96.1928 183.771 95.3563C185.756 94.9867 187.74 94.4226 189.667 93.6639C190.834 93.236 191.963 92.6913 193.092 92.1272C193.403 91.991 193.695 91.8159 194.006 91.6409C196.886 90.0458 199.63 88.0032 202.121 85.5133C204.144 83.4903 205.876 81.3116 207.297 79.0356C207.647 78.491 207.978 77.9463 208.289 77.4016C209.067 75.9816 209.749 74.5227 210.313 73.0443C210.897 71.5659 211.344 70.0875 211.694 68.5896C212.862 63.6876 212.862 58.7467 211.636 54.1559ZM175.423 58.7661C178.361 55.8288 182.311 54.6811 185.717 55.4203C188.285 59.2524 187.507 64.9131 183.615 68.8036C180.677 71.7409 176.746 72.8886 173.341 72.1494C170.753 68.2784 171.531 62.6372 175.423 58.7661Z" fill="#101728"/>
<path d="M207.959 54.7394C207.745 54.0197 207.511 53.3389 207.219 52.6386C206.927 51.8994 206.597 51.1991 206.207 50.4988C206.188 50.4599 206.168 50.421 206.149 50.3821C205.526 49.2538 204.826 48.1645 203.989 47.153C203.522 46.5305 202.977 45.9469 202.432 45.3828C200.603 43.5348 198.502 42.1148 196.244 41.0449C195.914 40.8893 195.563 40.7336 195.232 40.5975C194.551 40.2862 193.851 40.0333 193.111 39.8388C191.71 39.4109 190.251 39.1191 188.753 38.9635C187.974 38.8662 187.196 38.8273 186.379 38.8078C182.565 38.7495 178.614 39.5276 174.859 41.1032C174.119 41.4339 173.38 41.7841 172.66 42.1537C172.563 42.1926 172.485 42.2509 172.388 42.2898C170.792 43.1457 169.235 44.1378 167.756 45.305C166.706 46.122 165.674 47.0168 164.701 47.9894C163.222 49.4678 161.938 51.024 160.829 52.6775C160.09 53.7474 159.428 54.8367 158.864 55.9455C158.474 56.6847 158.144 57.4239 157.813 58.1631C157.793 58.2214 157.754 58.2798 157.735 58.3576C156.159 62.1509 155.4 66.1581 155.536 70.0291C155.556 71.1379 155.672 72.2467 155.847 73.3166C156.003 74.3476 156.256 75.398 156.548 76.3901C156.743 77.1098 156.996 77.7907 157.287 78.491C158.358 81.156 159.973 83.607 162.074 85.7079C162.308 85.9413 162.561 86.1747 162.794 86.4081C163.067 86.661 163.359 86.8945 163.631 87.1279V87.1473C164.293 87.6531 164.935 88.1589 165.635 88.6063C166.783 89.3455 168.009 89.9874 169.274 90.4737C169.975 90.785 170.656 91.0184 171.376 91.2324C172.66 91.6409 174.022 91.9132 175.384 92.0688C178.225 92.419 181.164 92.2828 184.102 91.6798C185.97 91.2907 187.819 90.7266 189.628 89.968C189.842 89.8512 190.056 89.7734 190.29 89.6567C190.815 89.4427 191.341 89.1899 191.847 88.9175C194.688 87.4391 197.373 85.4939 199.805 83.0818C201.965 80.9225 203.775 78.5104 205.157 76.0011C205.332 75.7093 205.507 75.4175 205.643 75.1257C206.032 74.4059 206.363 73.6473 206.674 72.9081C207.2 71.6437 207.647 70.3793 207.978 69.0954C209.34 64.2906 209.34 59.2719 207.959 54.7394ZM175.423 58.7661C178.362 55.8288 182.312 54.6811 185.717 55.4203C188.286 59.2524 187.507 64.9131 183.615 68.8036C180.677 71.741 176.746 72.8886 173.341 72.1495C170.753 68.2784 171.531 62.6372 175.423 58.7661Z" fill="#101728"/>
<path d="M194.999 59.408C194.454 57.9296 193.598 56.5679 192.449 55.4202C191.107 54.078 189.492 53.1248 187.74 52.5996C185.892 52.055 183.888 51.9382 181.883 52.2689C178.867 52.7747 175.831 54.292 173.399 56.7236C169.663 60.4584 168.165 65.4578 168.982 69.8346C169.332 71.702 170.111 73.4527 171.317 74.9311C171.551 75.2424 171.803 75.5147 172.076 75.787C175.637 79.3469 181.163 80.0082 186.067 77.9268C187.896 77.1682 189.628 76.001 191.146 74.4837C192.255 73.3749 193.169 72.1494 193.87 70.8656C194.882 69.0565 195.485 67.1112 195.719 65.2049C195.894 63.1818 195.66 61.1976 194.999 59.408ZM175.423 58.7661C178.361 55.8287 182.311 54.681 185.717 55.4202C188.285 59.2524 187.507 64.9131 183.615 68.8036C180.677 71.7409 176.746 72.8886 173.341 72.1494C170.753 68.2784 171.531 62.6371 175.423 58.7661Z" fill="#CF5A00"/>
<path d="M189.083 72.4412C185.678 75.8454 180.891 76.8375 177.174 75.3007C176.162 74.8727 175.209 74.2697 174.411 73.4527C174.003 73.0442 173.652 72.6163 173.36 72.1494C176.766 72.8691 180.696 71.7214 183.635 68.8036C187.507 64.9325 188.305 59.2718 185.736 55.4202C187.371 55.7509 188.889 56.529 190.115 57.7351C190.115 57.7351 190.115 57.7351 190.134 57.7545C193.89 61.5089 193.423 68.0838 189.083 72.4412Z" fill="#CF5A00"/>
<path d="M165.635 35.2869L160.926 32.0772C160.926 32.0772 159.564 32.1939 161.082 34.4115C162.6 36.6097 165.635 35.2869 165.635 35.2869Z" fill="#101728"/>
<path d="M189.492 23.8877L184.549 20.503C184.549 20.503 182.856 21.9036 184.549 23.8877C186.242 25.8719 186.826 26.7083 188.11 26.1637C189.375 25.6579 189.492 23.8877 189.492 23.8877Z" fill="#101728"/>
<path d="M212.901 32.3301L207.628 28.8092C207.628 28.8092 205.429 29.2761 207.628 32.0578C209.827 34.8201 211.014 35.3647 211.909 34.7228C212.843 34.0809 212.901 32.3301 212.901 32.3301Z" fill="#101728"/>
<path d="M221.21 55.1869L215.625 51.4714C215.625 51.4714 213.64 51.9578 215.625 54.6422C217.61 57.3461 220.159 58.3965 220.84 58.0269C221.521 57.6379 221.21 55.1869 221.21 55.1869Z" fill="#101728"/>
<path d="M193.014 92.0688L198.346 95.6287C198.346 95.6287 199.533 95.687 199.163 94.3448C198.774 93.022 198.365 91.1546 196.439 90.3181C194.493 89.4817 193.014 92.0688 193.014 92.0688Z" fill="#101728"/>
<path d="M176.007 105.997L175.034 107.3L168.34 102.943C168.34 102.943 166.686 100.492 170.5 100.531C174.294 100.57 176.007 105.997 176.007 105.997Z" fill="#101728"/>
<path d="M151.041 98.4686L144.658 94.0529L151.916 87.7503C151.916 87.7503 156.334 93.3721 155.497 95.0061C154.66 96.679 151.041 98.4686 151.041 98.4686Z" fill="#101728"/>
<path d="M143.238 75.9816L137.848 72.3829L144.113 65.2632C144.113 65.2632 148.531 70.885 147.694 72.519C146.857 74.192 143.238 75.9816 143.238 75.9816Z" fill="#101728"/>
<path d="M203.755 47.4058C199.825 51.3352 193.831 51.7632 190.406 48.3395C186.982 44.9159 187.39 38.9439 191.34 34.9951L195.563 30.7739C199.494 26.8445 205.468 26.4165 208.912 29.8402C212.337 33.2638 211.928 39.2357 207.978 43.1846L203.755 47.4058Z" fill="#213154"/>
<path d="M203.6 69.4844C198.385 69.854 194.454 65.9246 194.824 60.7113C195.194 55.498 199.708 50.9851 204.923 50.6155L210.508 50.2264C215.723 49.8568 219.654 53.7862 219.284 58.9995C218.914 64.2128 214.4 68.7258 209.185 69.0954L203.6 69.4844Z" fill="#213154"/>
<path d="M187.721 87.1473C184.297 83.7236 184.705 77.7517 188.655 73.8028C192.586 69.854 198.58 69.4455 202.004 72.8691L205.682 76.5456C209.107 79.9693 208.698 85.9412 204.748 89.8901C200.798 93.8195 194.824 94.2474 191.399 90.8238L187.721 87.1473Z" fill="#213154"/>
<path d="M165.441 90.0652C165.81 84.8519 170.325 80.3389 175.54 79.9693C180.755 79.5997 184.686 83.5291 184.316 88.7424L183.927 94.3253C183.557 99.5386 179.042 104.052 173.827 104.421C168.612 104.791 164.682 100.861 165.051 95.6481L165.441 90.0652Z" fill="#213154"/>
<path d="M149.815 76.5068C153.746 72.5774 159.72 72.1494 163.164 75.5731C166.589 78.9967 166.18 84.9686 162.23 88.9175L158.007 93.1387C154.077 97.0681 148.103 97.4961 144.658 94.053C141.234 90.6293 141.642 84.6574 145.592 80.7085L149.815 76.5068Z" fill="#213154"/>
<path d="M149.971 54.4281C155.186 54.0585 159.116 58.0074 158.747 63.2012C158.377 68.4145 153.863 72.9275 148.648 73.2971L143.063 73.6861C137.848 74.0557 133.917 70.1263 134.287 64.913C134.657 59.6997 139.171 55.1868 144.386 54.8172L149.971 54.4281Z" fill="#213154"/>
<path d="M165.849 36.7653C169.274 40.1889 168.865 46.1608 164.915 50.1097C160.984 54.0586 154.991 54.4671 151.566 51.0434L147.888 47.3669C144.464 43.9433 144.872 37.9713 148.822 34.0225C152.773 30.0736 158.746 29.6651 162.171 33.0887L165.849 36.7653Z" fill="#213154"/>
<path d="M188.13 33.8474C187.76 39.0607 183.246 43.5736 178.031 43.9238C172.816 44.2934 168.885 40.364 169.255 35.1507L169.644 29.5678C170.013 24.3546 174.528 19.8416 179.743 19.472C184.958 19.1024 188.889 23.0512 188.519 28.2451L188.13 33.8474Z" fill="#213154"/>
<path d="M206.986 55.109C206.908 54.3893 206.83 53.6501 206.694 52.9498C206.558 52.1328 206.382 51.3352 206.168 50.5377C206.168 50.4988 206.168 50.4599 206.149 50.421C205.779 49.0593 205.312 47.7171 204.728 46.4332C203.503 43.7293 201.829 41.2588 199.669 39.0996C199.28 38.7105 198.891 38.3604 198.482 38.0102C198.307 37.8546 198.112 37.6796 197.937 37.5239C196.633 36.454 195.232 35.5203 193.773 34.7617C193.306 34.4893 192.8 34.2559 192.333 34.0419C191.01 33.4389 189.628 32.972 188.227 32.6024C184.102 31.4936 179.665 31.3769 175.248 32.2134C173.263 32.583 171.278 33.1471 169.352 33.9058C168.184 34.3337 167.056 34.8784 165.927 35.462C165.616 35.5981 165.324 35.7732 165.013 35.9483C162.133 37.5434 159.389 39.5859 156.898 42.0758C154.874 44.0989 153.162 46.2581 151.722 48.5535C151.372 49.0982 151.041 49.6623 150.749 50.207C149.951 51.627 149.27 53.0665 148.706 54.5449C148.122 56.0233 147.675 57.5017 147.324 58.9995C146.157 63.8821 146.176 68.823 147.402 73.3944C147.752 74.7172 148.2 76.0399 148.745 77.3043C148.784 77.3627 148.823 77.4211 148.842 77.4989C149.757 79.483 150.924 81.3699 152.345 83.1012C152.851 83.7042 153.357 84.2683 153.921 84.8325C155.886 86.8166 158.124 88.3728 160.556 89.5594C160.79 89.6761 161.004 89.7929 161.257 89.9096C162.58 90.4931 163.942 90.9795 165.363 91.3491C166.316 91.6019 167.27 91.7965 168.262 91.9521C169.235 92.0883 170.189 92.205 171.162 92.2439C172.563 92.3217 173.983 92.2828 175.404 92.1466C178.361 91.8743 181.358 91.1545 184.258 90.0457C185.736 89.4816 187.176 88.8008 188.597 88.0032C188.714 87.9449 188.792 87.8865 188.908 87.8282C189.628 87.4197 190.348 86.9917 191.029 86.5443C193.034 85.2215 194.921 83.6653 196.711 81.8757C199.066 79.5219 201.012 76.9542 202.568 74.2697C202.666 74.1141 202.744 73.9196 202.86 73.764C203.211 73.122 203.541 72.4801 203.833 71.8576C204.223 71.0601 204.553 70.2431 204.865 69.4261C206.694 64.6991 207.414 59.7971 206.986 55.109ZM183.615 68.7841C180.677 71.7215 176.746 72.8692 173.341 72.13C170.753 68.2784 171.512 62.6371 175.423 58.7466C178.361 55.8093 182.312 54.6616 185.717 55.4008C188.266 59.2524 187.488 64.9131 183.615 68.7841Z" fill="#213154"/>
<path d="M203.211 54.1558C203.055 53.1248 202.802 52.0938 202.51 51.1017C202.296 50.4015 202.062 49.7012 201.771 49.0009C200.681 46.3359 199.085 43.8849 196.984 41.784C196.75 41.5506 196.497 41.3171 196.264 41.1031C195.991 40.8503 195.699 40.6168 195.427 40.364V40.3445C194.765 39.8193 194.104 39.3524 193.403 38.905C192.255 38.1464 191.049 37.5044 189.784 37.0181C189.103 36.7069 188.402 36.454 187.663 36.2595C186.379 35.851 185.036 35.5786 183.693 35.423C180.833 35.0534 177.894 35.1896 174.956 35.8121C173.107 36.2011 171.239 36.7847 169.43 37.5239C169.216 37.6406 169.002 37.7184 168.768 37.8351C168.243 38.0686 167.737 38.302 167.211 38.5743C164.37 40.0527 161.685 41.998 159.253 44.4101C157.093 46.5693 155.283 48.9814 153.882 51.4908C153.726 51.7826 153.551 52.0744 153.415 52.3662C153.026 53.0859 152.695 53.8445 152.364 54.5837C151.839 55.8287 151.391 57.0931 151.08 58.3964C149.737 63.279 149.737 68.2783 151.119 72.8302C151.313 73.5305 151.566 74.2308 151.858 74.9311C152.15 75.6508 152.481 76.3511 152.831 77.032C152.87 77.0903 152.89 77.1292 152.928 77.1876C153.532 78.3158 154.252 79.3857 155.049 80.4167C155.536 81.0197 156.061 81.6033 156.626 82.1674C158.455 83.996 160.556 85.4355 162.814 86.5053C163.144 86.661 163.495 86.8166 163.825 86.9333C164.526 87.2445 165.207 87.478 165.927 87.6919C167.348 88.1199 168.807 88.4117 170.305 88.5673C171.084 88.6646 171.882 88.7229 172.66 88.7229C176.474 88.7813 180.444 88.0032 184.199 86.4275C184.939 86.0968 185.697 85.7467 186.417 85.3771C186.515 85.3382 186.573 85.2798 186.67 85.2409C188.266 84.385 189.823 83.4124 191.302 82.2452C192.352 81.4088 193.403 80.4945 194.376 79.5219C195.855 78.0435 197.139 76.4678 198.268 74.8338C198.988 73.7834 199.63 72.694 200.214 71.5658C200.603 70.8461 200.934 70.0874 201.245 69.3482C201.284 69.2704 201.304 69.212 201.323 69.1537C202.919 65.3215 203.658 61.3338 203.522 57.4627C203.483 56.3345 203.386 55.2451 203.211 54.1558ZM175.423 58.766C178.361 55.8287 182.312 54.681 185.717 55.4202C188.285 59.2524 187.507 64.913 183.615 68.8035C180.677 71.7409 176.746 72.8886 173.341 72.1494C170.753 68.2783 171.531 62.6371 175.423 58.766Z" fill="#213154"/>
<path d="M190.095 57.7351C190.076 57.7351 190.076 57.7351 190.095 57.7351C189.725 55.8288 188.947 54.078 187.721 52.5802C187.488 52.2884 187.235 52.0161 186.982 51.7632C183.421 48.1839 177.894 47.5225 172.991 49.6234C171.162 50.4015 169.43 51.5687 167.912 53.086C166.803 54.1947 165.888 55.4203 165.188 56.6847C164.176 58.5132 163.572 60.439 163.339 62.3648C163.125 64.349 163.358 66.3331 164.04 68.1422C164.584 69.6206 165.421 70.9823 166.589 72.1494C167.912 73.4722 169.546 74.4059 171.278 74.9311C173.127 75.4953 175.131 75.612 177.155 75.3007C180.171 74.795 183.187 73.2971 185.639 70.8461C189.375 67.0918 190.893 62.1119 190.095 57.7351ZM183.615 68.7841C180.677 71.7215 176.746 72.8692 173.341 72.13C170.753 68.2784 171.512 62.6371 175.423 58.7466C178.361 55.8093 182.312 54.6616 185.717 55.4008C188.266 59.2524 187.488 64.9131 183.615 68.7841Z" fill="#1A2543"/>
<path d="M185.698 55.4203C182.292 54.7005 178.342 55.8482 175.404 58.7661C171.512 62.6372 170.734 68.2784 173.322 72.1494C171.668 71.8187 170.15 71.0601 168.943 69.8346L168.924 69.8151C165.129 66.0219 165.596 59.4664 169.936 55.1285C173.341 51.7243 178.128 50.7322 181.845 52.269C182.857 52.6775 183.81 53.2999 184.608 54.0975C185.055 54.506 185.406 54.934 185.698 55.4203Z" fill="#101728"/>
<path d="M601.07 34.8386L585.639 72.8682H529.227L544.658 34.8386H601.07Z" fill="#27E4B6"/>
<path d="M601.07 34.8395L565.149 53.8252L544.658 34.8395H601.07Z" fill="#23CCA0"/>
<path d="M631.932 36.454C631.932 37.3489 631.212 38.0686 630.297 38.0686H604.358C603.463 38.0686 602.724 37.3489 602.724 36.454C602.724 35.5592 603.444 34.82 604.358 34.82H630.297C631.192 34.8395 631.932 35.5592 631.932 36.454Z" fill="#A0AAB6"/>
<path d="M637.303 48.5729C637.303 49.4678 636.583 50.207 635.668 50.207H609.729C608.834 50.207 608.095 49.4872 608.095 48.5729C608.095 47.6781 608.815 46.9389 609.729 46.9389H635.668C636.563 46.9584 637.303 47.6781 637.303 48.5729Z" fill="#A0AAB6"/>
<path d="M674.703 48.5729C674.703 49.4678 673.983 50.207 673.068 50.207H647.129C646.234 50.207 645.495 49.4872 645.495 48.5729C645.495 47.6781 646.215 46.9389 647.129 46.9389H673.068C673.983 46.9584 674.703 47.6781 674.703 48.5729Z" fill="#A0AAB6"/>
<path d="M622.708 60.439C622.708 61.3338 621.969 62.0535 621.073 62.0535H595.135C594.239 62.0535 593.5 61.3338 593.5 60.439C593.5 59.5442 594.22 58.805 595.135 58.805H621.073C621.969 58.805 622.708 59.5442 622.708 60.439Z" fill="#A0AAB6"/>
<path d="M657.754 71.2351C657.754 72.13 657.034 72.8692 656.119 72.8692H630.18C629.285 72.8692 628.546 72.13 628.546 71.2351C628.546 70.3403 629.285 69.6011 630.18 69.6011H656.119C657.034 69.6011 657.754 70.3403 657.754 71.2351Z" fill="#A0AAB6"/>
<path opacity="0.1" d="M723 557.548C723 571.048 576.162 581.981 395.018 581.981C213.874 581.981 67.0361 571.048 67.0361 557.548C67.0361 544.048 213.874 533.116 395.018 533.116C576.143 533.116 723 544.048 723 557.548Z" fill="#8DA2B3"/>
<path d="M191.886 463.612C191.886 463.612 188.344 478.513 197.237 489.912C206.13 501.311 223.74 500.338 223.74 500.338C223.74 500.338 226.25 499.288 225.199 493.686C224.129 488.083 220.179 478.221 215.626 473.377C211.072 468.553 191.886 463.612 191.886 463.612Z" fill="#56667D"/>
<path d="M599.766 197.268C599.766 197.268 610.994 196.548 620.373 209.309C629.753 222.07 626.347 233.061 626.347 233.061C626.347 233.061 619.79 239.558 607.998 229.695C596.186 219.852 599.766 197.268 599.766 197.268Z" fill="white" stroke="black" stroke-miterlimit="10"/>
<path d="M352.714 493.744H409.788L437.283 549.047L382.837 547.491L352.714 493.744Z" fill="#151C2F"/>
<path d="M390.387 556.031C386.32 558.365 381.125 556.965 378.77 552.899L335.707 478.007C333.372 473.941 334.773 468.747 338.84 466.394C342.907 464.059 348.103 465.46 350.457 469.526L393.52 544.418C395.875 548.483 394.454 553.677 390.387 556.031Z" fill="#151C2F"/>
<path d="M446.76 556.031C442.693 558.365 437.497 556.965 435.143 552.899L392.08 478.007C389.745 473.941 391.146 468.747 395.213 466.394C399.28 464.059 404.475 465.46 406.83 469.526L449.893 544.418C452.228 548.483 450.827 553.677 446.76 556.031Z" fill="#151C2F"/>
<path d="M400.545 549.048C400.545 553.736 396.731 557.548 392.041 557.548H305.624C300.934 557.548 297.12 553.736 297.12 549.048C297.12 544.359 300.934 540.547 305.624 540.547H392.041C396.731 540.547 400.545 544.359 400.545 549.048Z" fill="#56667D"/>
<path d="M453.629 549.048C453.629 553.736 449.815 557.548 445.125 557.548H358.708C354.018 557.548 350.204 553.736 350.204 549.048C350.204 544.359 354.018 540.547 358.708 540.547H445.125C449.815 540.547 453.629 544.359 453.629 549.048Z" fill="#3F4B65"/>
<path d="M543.53 479.213C541.059 489.387 532.419 500.358 521.152 500.358H224.538C213.271 500.358 204.125 491.215 204.125 479.952L288.792 233.547C292.742 220.806 301.693 213.141 312.96 213.141H605.799C621.055 213.141 629.85 220.806 626.211 233.547L543.53 479.213Z" fill="#3F4B65"/>
<path d="M531.271 462.892C528.799 473.066 520.159 484.037 508.893 484.037H212.298C201.031 484.037 191.886 474.894 191.886 463.631L276.552 217.226C280.502 204.485 289.453 196.821 300.72 196.821H593.559C608.815 196.821 617.61 204.485 613.971 217.226L531.271 462.892Z" fill="#A0AAB6"/>
<path d="M525.297 457.154C522.942 466.861 514.711 477.307 503.95 477.307H221.23C210.489 477.307 201.771 468.592 201.771 457.854L282.468 222.965C286.223 210.827 294.766 203.512 305.507 203.512H584.647C599.183 203.512 607.57 210.807 604.106 222.965L525.297 457.154Z" fill="white"/>
<path d="M472.037 112.397C454.388 141.109 422.631 153.694 401.109 140.467L395.213 136.848C374.547 124.146 370.85 92.2828 386.242 64.3295C386.865 63.1818 387.526 62.0536 388.207 60.9253C388.908 59.7971 389.628 58.6883 390.367 57.6184C408.348 31.2602 438.47 20.1723 459.116 32.8553L465.012 36.4735C486.553 49.6817 489.686 83.6653 472.037 112.397Z" fill="#1A2543"/>
<path d="M466.141 108.779C449.309 136.168 419.614 148.89 398.248 138.521C397.217 138.035 396.205 137.471 395.213 136.868C374.547 124.165 370.85 92.3022 386.242 64.349C386.865 63.2013 387.526 62.073 388.207 60.9448C388.908 59.8165 389.628 58.7077 390.367 57.6378C408.348 31.2797 438.47 20.1917 459.116 32.8748C460.109 33.4778 461.062 34.1197 461.977 34.82C480.91 49.176 482.992 81.3699 466.141 108.779Z" fill="#56667D"/>
<path d="M455.867 102.456C442.868 123.601 419.498 132.841 403.677 123.115C387.838 113.389 385.542 88.3728 398.521 67.2279C411.519 46.1025 434.89 36.8431 450.71 46.5694C466.53 56.2956 468.846 81.331 455.867 102.456Z" fill="#27E4B6"/>
<path d="M444.463 95.473C436.621 108.214 422.533 113.797 412.998 107.923C403.444 102.067 402.062 86.9723 409.885 74.2309C417.727 61.4895 431.815 55.9066 441.35 61.7812C450.904 67.6364 452.305 82.7316 444.463 95.473Z" fill="white"/>
<path opacity="0.3" d="M430.55 86.9138C429.402 88.7618 426.989 89.3454 425.121 88.1977L386.262 64.3295C386.884 63.1818 387.546 62.0535 388.227 60.9253C388.928 59.797 389.648 58.6882 390.387 57.6183L429.247 81.4866C431.115 82.6343 431.679 85.0659 430.55 86.9138Z" fill="#4073A1"/>
<path d="M428.604 88.5285C426.581 89.3066 424.304 88.3145 423.506 86.272L398.17 21.0671C397.373 19.0246 398.385 16.7487 400.408 15.9511C402.432 15.173 404.728 16.1651 405.526 18.2076L430.862 83.4125C431.66 85.455 430.628 87.7504 428.604 88.5285Z" fill="#1A2543"/>
<path d="M405.799 28.1478L397.062 7.19743L401.79 0L410.118 19.9777L405.799 28.1478Z" fill="#23CCA0"/>
<path d="M388.032 4.10446L397.236 26.1831L405.798 28.1478L397.003 7.10015L388.032 4.10446Z" fill="#27E4B6"/>
<path d="M113.563 155.717L74.6448 203.765L56.4311 226.272L54.4852 203.765L54.096 199.038L53.3955 190.985L63.125 180.208L113.563 155.717Z" fill="#A0AAB6"/>
<path d="M113.563 155.717L102.413 203.765H14.6333L63.1252 180.208L113.563 155.717Z" fill="#A0AAB6"/>
<path d="M56.4312 226.272L47.6162 203.765L113.563 155.717L61.0819 203.765L56.4312 226.272Z" fill="#56667D"/>
<path d="M47.6165 234.889C47.6165 234.889 45.4955 236.815 42.168 240.433" stroke="#A0AAB6" stroke-miterlimit="10"/>
<path d="M32.2437 252.455C15.0808 275.35 -8.58136 318.982 5.03995 373.683C25.3941 455.422 156.1 435.95 164.429 359.93C172.777 283.91 91.3018 281.186 64.0981 323.982C36.8944 366.777 42.2845 434.414 117.319 471.393C176.824 500.708 264.215 464.837 297.84 448.731" stroke="#A0AAB6" stroke-miterlimit="10" stroke-dasharray="8.01 8.01"/>
<path d="M304.826 445.288C309.262 443.051 311.714 441.67 311.714 441.67" stroke="#A0AAB6" stroke-miterlimit="10"/>
<path opacity="0.3" d="M271.142 420.447C269.527 424.551 264.526 430.698 258.863 430.698H197.081C191.418 430.698 186.826 426.107 186.826 420.447L203.25 375.667C205.371 369.423 207.842 365.416 213.504 365.416H277.311C282.973 365.416 289.492 369.345 287.566 375.667L271.142 420.447Z" fill="#4073A1"/>
<path d="M257.326 404.904C255.711 409.009 250.71 415.156 245.047 415.156H183.246C177.583 415.156 172.991 410.565 172.991 404.904L189.414 360.125C191.535 353.88 194.006 349.873 199.669 349.873H263.475C269.138 349.873 275.657 353.783 273.73 360.125L257.326 404.904Z" fill="#A0AAB6"/>
<path opacity="0.3" d="M670.033 178.847L642.401 254.225C642.401 263.776 634.656 271.499 625.121 271.499H471.979C462.444 271.499 454.699 263.776 454.699 254.225L482.331 178.847C485.911 168.323 490.076 161.573 499.611 161.573H652.753C662.288 161.573 673.263 168.167 670.033 178.847Z" fill="#4073A1"/>
<path d="M656.217 165.035L628.585 240.414C628.585 249.965 620.84 257.688 611.305 257.688H458.163C448.628 257.688 440.883 249.965 440.883 240.414L468.515 165.035C472.096 154.511 476.26 147.761 485.795 147.761H638.937C648.472 147.761 659.428 154.356 656.217 165.035Z" fill="#A0AAB6"/>
<path d="M531.27 146.166C519.011 146.166 506.441 151.146 496.03 159.141C485.619 167.175 477.349 178.263 473.71 190.518C466.433 215.009 480.385 234.87 504.884 234.87C517.124 234.87 529.694 229.89 540.105 221.875C550.515 213.842 558.785 202.754 562.424 190.518C569.721 166.027 555.769 146.166 531.27 146.166ZM513.232 206.839C504.222 206.839 499.085 199.544 501.77 190.518C503.113 186.005 506.149 181.939 509.982 178.983C513.815 176.026 518.427 174.197 522.942 174.197C531.951 174.197 537.089 181.492 534.403 190.518C533.061 195.031 530.025 199.097 526.191 202.053C522.358 205.01 517.727 206.839 513.232 206.839Z" fill="#56667D"/>
<path d="M526.094 134.086C513.835 134.086 501.265 139.066 490.854 147.061C480.444 155.095 472.174 166.183 468.535 178.438C461.257 202.929 475.209 222.79 499.708 222.79C511.948 222.79 524.518 217.81 534.948 209.795C545.359 201.762 553.629 190.674 557.268 178.438C564.526 153.947 550.574 134.086 526.094 134.086ZM508.036 194.759C499.027 194.759 493.89 187.464 496.575 178.438C497.918 173.925 500.953 169.859 504.787 166.903C508.62 163.946 513.232 162.117 517.747 162.117C526.756 162.117 531.893 169.412 529.208 178.438C527.865 182.951 524.83 187.017 520.996 189.973C517.163 192.93 512.551 194.759 508.036 194.759Z" fill="#27E4B6"/>
<g opacity="0.4">
<path opacity="0.4" d="M633.119 171.416C632.769 172.602 631.504 173.575 630.317 173.575H619.77C618.564 173.575 617.883 172.602 618.252 171.416L621.385 160.872C621.736 159.686 623 158.713 624.187 158.713H634.734C635.921 158.713 636.602 159.686 636.252 160.872L633.119 171.416Z" fill="#56667D"/>
<path opacity="0.4" d="M627.632 189.896C627.282 191.102 626.017 192.055 624.83 192.055H614.283C613.077 192.055 612.395 191.082 612.765 189.896L615.898 179.352C616.248 178.146 617.513 177.193 618.7 177.193H629.247C630.434 177.193 631.115 178.166 630.765 179.352L627.632 189.896Z" fill="#56667D"/>
<path opacity="0.4" d="M622.125 208.356C621.775 209.562 620.51 210.515 619.323 210.515H608.776C607.589 210.515 606.888 209.543 607.258 208.356L610.391 197.813C610.741 196.626 612.006 195.654 613.193 195.654H623.74C624.927 195.654 625.608 196.626 625.258 197.813L622.125 208.356Z" fill="#56667D"/>
</g>
<path d="M627.943 150.699C627.593 151.905 626.328 152.858 625.141 152.858H614.594C613.407 152.858 612.706 151.885 613.076 150.699L616.209 140.155C616.559 138.969 617.824 137.996 619.031 137.996H629.577C630.764 137.996 631.465 138.969 631.095 140.155L627.943 150.699Z" fill="#27E4B6"/>
<path d="M622.436 169.179C622.086 170.385 620.821 171.338 619.634 171.338H609.068C607.881 171.338 607.18 170.365 607.55 169.179L610.683 158.635C611.033 157.449 612.298 156.476 613.485 156.476H624.032C625.238 156.476 625.92 157.449 625.55 158.635L622.436 169.179Z" fill="#3F4B65"/>
<path d="M616.949 187.639C616.598 188.845 615.333 189.798 614.146 189.798H603.6C602.413 189.798 601.712 188.826 602.082 187.639L605.215 177.096C605.565 175.89 606.83 174.937 608.036 174.937H618.583C619.77 174.937 620.471 175.909 620.101 177.096L616.949 187.639Z" fill="white"/>
<path d="M504.787 166.903C500.953 169.859 497.918 173.925 496.575 178.438C493.89 187.445 499.027 194.759 508.036 194.759L499.689 222.79C475.19 222.79 461.237 202.909 468.515 178.438C472.154 166.202 480.424 155.095 490.835 147.061C501.245 139.047 513.816 134.086 526.075 134.086L517.727 162.117C513.232 162.137 508.62 163.965 504.787 166.903Z" fill="#3F4B65"/>
<path d="M534.929 209.796C524.518 217.829 511.948 222.79 499.689 222.79C475.19 222.79 461.237 202.909 468.515 178.438C472.154 166.202 480.424 155.095 490.835 147.061L504.787 166.903C500.953 169.86 497.918 173.925 496.575 178.438C493.89 187.445 499.027 194.759 508.036 194.759C512.551 194.759 517.163 192.93 520.996 189.973L534.929 209.796Z" fill="white"/>
<g opacity="0.4">
<path opacity="0.4" d="M451.274 356.467C450.71 358.374 448.706 359.911 446.799 359.911H298.424C296.517 359.911 295.427 358.374 295.991 356.467L312.181 302.02C312.745 300.113 314.75 298.557 316.657 298.557H465.032C466.939 298.557 468.028 300.113 467.464 302.02L451.274 356.467Z" fill="#74A3CC"/>
<path opacity="0.4" d="M389.258 378.857C388.694 380.764 386.689 382.3 384.782 382.3H334.247C332.34 382.3 331.251 380.764 331.815 378.857L333.683 372.574C334.247 370.668 336.252 369.131 338.158 369.131H388.694C390.601 369.131 391.69 370.668 391.126 372.574L389.258 378.857Z" fill="#74A3CC"/>
<path opacity="0.4" d="M352.403 393.349C351.994 394.75 350.496 395.898 349.095 395.898H295.135C293.734 395.898 292.916 394.75 293.344 393.349C293.753 391.949 295.251 390.801 296.652 390.801H350.612C352.013 390.801 352.811 391.949 352.403 393.349Z" fill="#74A3CC"/>
<path opacity="0.4" d="M349.873 401.87C349.465 403.27 347.966 404.418 346.565 404.418H292.605C291.204 404.418 290.387 403.27 290.815 401.87C291.243 400.469 292.722 399.321 294.123 399.321H348.083C349.484 399.321 350.282 400.45 349.873 401.87Z" fill="#74A3CC"/>
<path opacity="0.4" d="M347.344 410.37C346.915 411.771 345.437 412.919 344.035 412.919H290.076C288.675 412.919 287.857 411.771 288.285 410.37C288.694 408.97 290.192 407.822 291.593 407.822H345.553C346.954 407.822 347.752 408.97 347.344 410.37Z" fill="#74A3CC"/>
<path opacity="0.4" d="M344.814 418.891C344.405 420.291 342.907 421.439 341.506 421.439H287.546C286.145 421.439 285.327 420.291 285.756 418.891C286.184 417.49 287.663 416.342 289.064 416.342H343.023C344.425 416.342 345.222 417.471 344.814 418.891Z" fill="#74A3CC"/>
<path opacity="0.4" d="M417.921 393.349C417.493 394.75 416.014 395.898 414.613 395.898H360.653C359.252 395.898 358.435 394.75 358.863 393.349C359.272 391.949 360.77 390.801 362.171 390.801H416.131C417.532 390.801 418.33 391.949 417.921 393.349Z" fill="#74A3CC"/>
<path opacity="0.4" d="M415.392 401.87C414.964 403.27 413.485 404.418 412.084 404.418H358.124C356.723 404.418 355.906 403.27 356.334 401.87C356.762 400.469 358.241 399.321 359.642 399.321H413.602C415.003 399.321 415.801 400.45 415.392 401.87Z" fill="#74A3CC"/>
<path opacity="0.4" d="M412.862 410.37C412.453 411.771 410.955 412.919 409.554 412.919H355.594C354.193 412.919 353.376 411.771 353.804 410.37C354.213 408.97 355.711 407.822 357.112 407.822H411.072C412.473 407.822 413.271 408.97 412.862 410.37Z" fill="#74A3CC"/>
<path opacity="0.4" d="M410.332 418.891C409.924 420.291 408.425 421.439 407.024 421.439H353.064C351.663 421.439 350.846 420.291 351.274 418.891C351.702 417.49 353.181 416.342 354.582 416.342H408.542C409.943 416.342 410.741 417.471 410.332 418.891Z" fill="#74A3CC"/>
</g>
<path d="M442.634 347.831C442.07 349.737 440.066 351.293 438.159 351.293H289.784C287.877 351.293 286.787 349.737 287.351 347.831L303.541 293.383C304.106 291.477 306.11 289.92 308.017 289.92H456.392C458.299 289.92 459.389 291.457 458.824 293.383L442.634 347.831Z" fill="#56667D"/>
<path d="M380.618 370.22C380.054 372.127 378.05 373.664 376.143 373.664H325.608C323.701 373.664 322.611 372.127 323.175 370.22L325.043 363.937C325.608 362.031 327.612 360.494 329.519 360.494H380.054C381.961 360.494 383.051 362.031 382.486 363.937L380.618 370.22Z" fill="#56667D"/>
<path d="M343.763 384.732C343.354 386.133 341.856 387.28 340.455 387.28H286.495C285.094 387.28 284.277 386.133 284.705 384.732C285.133 383.331 286.612 382.184 288.013 382.184H341.973C343.374 382.184 344.191 383.312 343.763 384.732Z" fill="#56667D"/>
<path d="M341.233 393.233C340.805 394.633 339.326 395.781 337.925 395.781H283.965C282.564 395.781 281.747 394.633 282.175 393.233C282.603 391.832 284.082 390.685 285.483 390.685H339.443C340.844 390.685 341.661 391.832 341.233 393.233Z" fill="#56667D"/>
<path d="M338.704 401.734C338.276 403.134 336.797 404.282 335.396 404.282H281.436C280.035 404.282 279.218 403.134 279.646 401.734C280.054 400.333 281.553 399.185 282.954 399.185H336.914C338.315 399.185 339.132 400.333 338.704 401.734Z" fill="#56667D"/>
<path d="M336.174 410.254C335.746 411.654 334.267 412.802 332.866 412.802H278.906C277.505 412.802 276.688 411.654 277.116 410.254C277.544 408.853 279.023 407.705 280.424 407.705H334.384C335.785 407.705 336.602 408.834 336.174 410.254Z" fill="#56667D"/>
<path d="M409.281 384.732C408.853 386.133 407.375 387.28 405.973 387.28H352.014C350.613 387.28 349.795 386.133 350.223 384.732C350.632 383.331 352.13 382.184 353.531 382.184H407.491C408.892 382.184 409.71 383.312 409.281 384.732Z" fill="#56667D"/>
<path d="M406.752 393.233C406.344 394.633 404.845 395.781 403.444 395.781H349.484C348.083 395.781 347.266 394.633 347.694 393.233C348.122 391.832 349.601 390.685 351.002 390.685H404.962C406.363 390.685 407.18 391.832 406.752 393.233Z" fill="#56667D"/>
<path d="M404.222 401.734C403.794 403.134 402.315 404.282 400.914 404.282H346.955C345.553 404.282 344.736 403.134 345.164 401.734C345.592 400.333 347.071 399.185 348.472 399.185H402.432C403.833 399.185 404.631 400.333 404.222 401.734Z" fill="#56667D"/>
<path d="M401.693 410.254C401.284 411.654 399.786 412.802 398.385 412.802H344.425C343.024 412.802 342.206 411.654 342.634 410.254C343.063 408.853 344.541 407.705 345.943 407.705H399.902C401.303 407.705 402.101 408.834 401.693 410.254Z" fill="#56667D"/>
<path d="M599.513 398.193C596.789 405.099 588.383 415.467 578.848 415.467H474.839C465.304 415.467 457.56 407.744 457.56 398.193L485.191 322.795C488.752 312.291 492.917 305.521 502.471 305.521H609.885C619.42 305.521 630.395 312.116 627.164 322.795L599.513 398.193Z" fill="#1A2543"/>
<path d="M533.197 317.173L524.732 330.46C524.129 330.401 523.506 330.382 522.884 330.382C510.78 330.382 498.151 338.649 491.905 349.834H477.895C486.612 331.024 507.239 316.668 526.97 316.668C529.15 316.668 531.212 316.843 533.197 317.173Z" fill="#101728"/>
<path d="M494.376 378.118L485.912 391.404C476.999 385.685 472.388 375.278 473.983 362.965H487.994C487.78 369.267 490.134 374.636 494.376 378.118Z" fill="#101728"/>
<path d="M554.894 356.39C554.232 358.627 553.396 360.805 552.403 362.945C543.686 381.756 523.059 396.112 503.327 396.112C501.148 396.112 499.085 395.937 497.101 395.606L505.565 382.32C506.168 382.378 506.791 382.398 507.414 382.398C521.775 382.398 536.894 370.765 541.156 356.39C543.861 347.305 541.584 339.31 535.902 334.661L544.367 321.375C553.298 327.094 557.91 337.501 556.295 349.834C556.023 351.974 555.556 354.172 554.894 356.39Z" fill="#101728"/>
<path d="M592.236 327.833C591.671 329.74 589.667 331.276 587.76 331.276H579.412C577.505 331.276 576.416 329.74 576.98 327.833L579.276 320.13C579.84 318.224 581.845 316.668 583.752 316.668H592.1C594.007 316.668 595.096 318.204 594.532 320.13L592.236 327.833Z" fill="#101728"/>
<path d="M586.437 347.344C585.873 349.251 583.868 350.807 581.961 350.807H573.613C571.706 350.807 570.617 349.27 571.181 347.344L573.477 339.641C574.042 337.735 576.046 336.179 577.953 336.179H586.301C588.208 336.179 589.297 337.715 588.733 339.641L586.437 347.344Z" fill="#101728"/>
<path d="M580.638 366.855C580.074 368.762 578.07 370.318 576.163 370.318H567.815C565.908 370.318 564.818 368.781 565.382 366.855L567.678 359.152C568.243 357.246 570.247 355.709 572.154 355.709H580.502C582.409 355.709 583.499 357.246 582.934 359.152L580.638 366.855Z" fill="#101728"/>
<path d="M524.557 308.537L516.092 321.823C515.489 321.764 514.866 321.745 514.244 321.745C502.14 321.745 489.511 330.012 483.265 341.197H469.254C477.972 322.387 498.599 308.031 518.33 308.031C520.509 308.031 522.592 308.206 524.557 308.537Z" fill="#27E4B6"/>
<path d="M485.736 369.481L477.271 382.767C468.359 377.048 463.747 366.641 465.343 354.328H479.354C479.159 360.63 481.494 365.999 485.736 369.481Z" fill="#A0AAB6"/>
<path d="M546.254 347.772C545.592 349.99 544.755 352.188 543.763 354.328C535.045 373.138 514.419 387.494 494.687 387.494C492.508 387.494 490.445 387.319 488.46 386.989L496.925 373.702C497.528 373.761 498.151 373.78 498.774 373.78C513.135 373.78 528.254 362.148 532.516 347.772C535.221 338.688 532.944 330.693 527.262 326.044L535.726 312.758C544.658 318.477 549.27 328.884 547.655 341.217C547.382 343.337 546.915 345.535 546.254 347.772Z" fill="white"/>
<path d="M583.615 319.196C583.05 321.103 581.046 322.64 579.139 322.64H570.791C568.884 322.64 567.794 321.103 568.359 319.196L570.655 311.493C571.219 309.587 573.224 308.031 575.131 308.031H583.479C585.386 308.031 586.475 309.587 585.911 311.493L583.615 319.196Z" fill="#27E4B6"/>
<path d="M577.797 338.707C577.233 340.614 575.228 342.17 573.321 342.17H564.973C563.066 342.17 561.977 340.633 562.541 338.707L564.837 331.004C565.401 329.098 567.406 327.561 569.313 327.561H577.661C579.568 327.561 580.657 329.098 580.093 331.004L577.797 338.707Z" fill="white"/>
<path d="M571.998 358.218C571.434 360.125 569.429 361.661 567.522 361.661H559.174C557.268 361.661 556.178 360.125 556.742 358.218L559.038 350.515C559.603 348.609 561.607 347.053 563.514 347.053H571.862C573.769 347.053 574.859 348.589 574.294 350.515L571.998 358.218Z" fill="#A0AAB6"/>
<path d="M384.647 313.691C381.65 323.768 371.064 331.938 360.984 331.938C350.905 331.938 345.164 323.768 348.161 313.691C351.158 303.615 361.763 295.445 371.823 295.445C381.903 295.464 387.643 303.634 384.647 313.691Z" fill="#3F4B65"/>
<path d="M380.813 298.771C377.816 308.848 367.231 317.018 357.151 317.018C347.071 317.018 341.331 308.848 344.327 298.771C347.324 288.695 357.91 280.525 367.99 280.525C378.069 280.525 383.81 288.695 380.813 298.771Z" fill="#27E4B6"/>
<path d="M360.751 290.893L372.037 298.771L356.061 306.65L360.751 290.893Z" fill="white"/>
<path opacity="0.3" d="M338.003 260.255C335.279 267.161 326.872 277.529 317.337 277.529H213.329C203.794 277.529 196.049 269.807 196.049 260.255L223.681 184.857C227.242 174.353 231.406 167.583 240.961 167.583H348.375C357.909 167.583 368.884 174.178 365.654 184.857L338.003 260.255Z" fill="#4073A1"/>
<path d="M355.263 174.489L327.631 249.887C324.927 256.793 316.501 267.161 306.966 267.161H202.957C193.422 267.161 185.678 259.419 185.678 249.887L193.967 227.244L207.939 189.137L213.31 174.47C216.89 163.965 221.054 157.196 230.589 157.196H338.003C347.538 157.215 358.513 163.829 355.263 174.489Z" fill="#3F4B65"/>
<g opacity="0.4">
<path opacity="0.4" d="M222.942 192.6L213.446 224.541C212.881 226.447 210.877 228.003 208.97 228.003H195.874C195.057 228.003 194.415 227.731 193.948 227.264L207.919 189.156H220.509C222.416 189.156 223.506 190.674 222.942 192.6Z" fill="#1B1852"/>
<path opacity="0.4" d="M247.616 224.54C247.051 226.447 245.047 228.003 243.14 228.003H230.064C228.157 228.003 227.067 226.447 227.631 224.54L244.405 168.128C244.969 166.222 246.974 164.685 248.881 164.685H261.957C263.864 164.685 264.954 166.222 264.389 168.128L247.616 224.54Z" fill="#1B1852"/>
<path opacity="0.4" d="M330.511 157.215L310.488 224.541C309.943 226.447 307.919 228.003 306.012 228.003H292.916C291.009 228.003 289.92 226.466 290.503 224.541L310.527 157.215H330.511Z" fill="#1B1852"/>
<path opacity="0.4" d="M278.147 224.541C277.583 226.447 275.578 228.003 273.671 228.003H260.595C258.688 228.003 257.598 226.447 258.163 224.541L271.083 181.084C271.648 179.177 273.652 177.641 275.559 177.641H288.635C290.542 177.641 291.632 179.177 291.068 181.084L278.147 224.541Z" fill="#1B1852"/>
<path opacity="0.4" d="M253.765 157.215H257.014L254.096 158.441L226.289 170.093L222.358 171.727L221.677 170.132L225.958 168.342L252.558 157.196L253.765 156.671C253.765 156.885 253.745 157.04 253.765 157.215Z" fill="#1B1852"/>
<path opacity="0.4" d="M302.023 157.215L289.648 165.133L285.483 167.817L281.514 166.222L260.965 157.955L259.136 157.235H261.529C261.685 157.001 261.821 156.748 261.918 156.496L263.748 157.235L282.467 164.743L285.308 165.891L288.908 163.596L298.832 157.235H302.023V157.215Z" fill="#1B1852"/>
<g opacity="0.4">
<path opacity="0.4" d="M226.133 170.949C225.452 173.225 223.058 175.073 220.782 175.073C218.505 175.073 217.221 173.225 217.882 170.949C218.563 168.673 220.957 166.825 223.233 166.825C225.51 166.844 226.814 168.673 226.133 170.949Z" fill="#1B1852"/>
<path opacity="0.4" d="M261.529 157.215C261.354 157.468 261.159 157.721 260.965 157.935C259.914 159.141 258.338 159.958 256.839 159.958C255.555 159.958 254.582 159.375 254.115 158.441C253.901 158.071 253.804 157.663 253.784 157.215H257.034L258.065 156.787L259.135 157.215H261.529Z" fill="#1B1852"/>
<path opacity="0.4" d="M289.511 166.844C288.83 169.12 286.436 170.968 284.16 170.968C281.883 170.968 280.599 169.12 281.26 166.844C281.941 164.568 284.335 162.72 286.611 162.72C288.888 162.72 290.192 164.568 289.511 166.844Z" fill="#1B1852"/>
</g>
</g>
<path d="M203.094 212.46C202.529 214.367 200.525 215.923 198.618 215.923H185.542C183.635 215.923 182.545 214.386 183.109 212.46L192.605 180.519C193.17 178.613 195.174 177.076 197.081 177.076H210.157C212.064 177.076 213.154 178.613 212.59 180.519L203.094 212.46Z" fill="#27E4B6"/>
<path d="M237.264 212.461C236.699 214.367 234.695 215.923 232.788 215.923H219.712C217.805 215.923 216.715 214.386 217.279 212.461L234.053 156.048C234.617 154.142 236.621 152.605 238.528 152.605H251.605C253.512 152.605 254.602 154.142 254.037 156.048L237.264 212.461Z" fill="#27E4B6"/>
<path d="M300.136 212.46C299.571 214.367 297.567 215.923 295.66 215.923H282.584C280.677 215.923 279.587 214.386 280.151 212.46L300.486 144.065C301.05 142.159 303.055 140.622 304.962 140.622H318.038C319.945 140.622 321.035 142.159 320.47 144.065L300.136 212.46Z" fill="#27E4B6"/>
<path d="M267.795 212.46C267.231 214.367 265.226 215.923 263.319 215.923H250.243C248.336 215.923 247.246 214.386 247.81 212.46L260.731 169.003C261.296 167.097 263.3 165.541 265.207 165.541H278.283C280.19 165.541 281.28 167.078 280.716 169.003L267.795 212.46Z" fill="#27E4B6"/>
<path d="M211.986 159.666L211.325 158.071L247.674 142.84L274.936 153.792L317.065 126.85L357.987 97.5349L358.98 98.9355L318.038 128.27L275.131 155.717L247.694 144.707L211.986 159.666Z" fill="#56667D"/>
<path d="M215.781 158.869C215.1 161.145 212.706 162.993 210.43 162.993C208.153 162.993 206.869 161.145 207.53 158.869C208.211 156.593 210.605 154.745 212.881 154.745C215.158 154.745 216.442 156.593 215.781 158.869Z" fill="#27E4B6"/>
<path d="M251.799 143.773C251.118 146.049 248.725 147.897 246.448 147.897C244.171 147.897 242.887 146.049 243.549 143.773C244.23 141.498 246.623 139.65 248.9 139.65C251.196 139.65 252.48 141.498 251.799 143.773Z" fill="#27E4B6"/>
<path d="M279.159 154.745C278.478 157.021 276.084 158.869 273.807 158.869C271.531 158.869 270.246 157.021 270.908 154.745C271.589 152.469 273.983 150.621 276.259 150.621C278.536 150.64 279.82 152.469 279.159 154.745Z" fill="#27E4B6"/>
<path d="M321.638 127.57C320.957 129.846 318.563 131.693 316.286 131.693C314.01 131.693 312.725 129.846 313.387 127.57C314.068 125.294 316.462 123.446 318.738 123.446C321.015 123.446 322.319 125.294 321.638 127.57Z" fill="#27E4B6"/>
<path d="M349.328 94.0335L359.35 108.137L364.156 91.7187L349.328 94.0335Z" fill="#56667D"/>
</svg>
