<svg width="476" height="432" viewBox="0 0 476 432" fill="none" xmlns="http://www.w3.org/2000/svg">
<path d="M68.7623 82.049C66.9309 76.4961 57.0826 76.0117 56.5298 81.7895C47.2344 78.9525 42.7595 90.8542 49.0658 93.4663L91.8452 118.325C99.5337 123.342 103.127 109.502 94.8515 103.482C94.8515 103.431 94.8342 103.361 94.8687 103.309C97.4258 99.175 91.3787 91.8229 87.1629 91.9959C88.0268 81.5474 73.0126 73.2266 68.7623 82.049Z" fill="#A0AAB6"/>
<path d="M66.5855 83.6232C64.7541 78.0703 54.9059 77.5859 54.353 83.3638C45.0577 80.5267 40.5828 92.4284 46.8891 95.0406L89.6684 119.899C97.3569 124.916 100.951 111.077 92.6747 105.057C92.6747 105.005 92.6574 104.936 92.692 104.884C95.2491 100.749 89.2019 93.3972 84.9862 93.5701C85.8501 83.1216 70.8185 74.7835 66.5855 83.6232Z" fill="#B3BDC6"/>
<path d="M17.3617 313.198L71.9589 344.82C73.9112 345.945 76.3646 344.543 76.3646 342.277V293.979C76.3646 292.923 75.8118 291.955 74.896 291.436L20.2989 259.813C18.3465 258.689 15.8931 260.09 15.8931 262.356V310.655C15.8931 311.71 16.4632 312.679 17.3617 313.198Z" fill="#A0AAB6"/>
<path d="M15.8931 312.35L76.3819 347.363V292.283L15.8931 257.27V312.35Z" fill="#879099"/>
<path d="M15.8931 312.35L76.3819 347.363L44.4702 298.355L15.8931 312.35Z" fill="#A0AAB6"/>
<path d="M47.3037 302.317L76.3646 292.283L15.8931 257.27L41.8613 300.345C43.0016 302.196 45.265 303.026 47.3037 302.317Z" fill="#A0AAB6"/>
<g opacity="0.7">
<path opacity="0.7" d="M169.094 384.452L207.502 406.681C211.286 408.878 216.037 406.145 216.037 401.751V349.75C216.037 346.36 214.24 343.229 211.303 341.533L172.895 319.304C169.111 317.107 164.36 319.84 164.36 324.234V376.235C164.36 379.626 166.157 382.757 169.094 384.452Z" fill="#27E4B6"/>
<path opacity="0.7" d="M206.811 361.842C204.064 354.75 193.663 348.764 190.622 357.102C187.633 345.218 177.422 339.129 174.45 342.848C170.545 347.744 170.718 362.984 190.535 384.245C208.107 381.494 209.627 369.16 206.811 361.842Z" fill="white"/>
</g>
<g opacity="0.7">
<path opacity="0.7" d="M81.7726 40.9466L105.633 54.7512C107.983 56.1178 110.937 54.4052 110.937 51.6893V19.3921C110.937 17.2817 109.814 15.3442 108 14.2889L84.1397 0.484377C81.7899 -0.882241 78.8354 0.830356 78.8354 3.54629V35.8435C78.8354 37.9539 79.9585 39.8914 81.7726 40.9466Z" fill="#27E4B6"/>
<path opacity="0.7" d="M105.201 26.8999C103.491 22.506 97.046 18.7694 95.1455 23.9591C93.2795 16.5724 86.9386 12.8013 85.1072 15.102C82.6711 18.1466 82.792 27.6092 95.0936 40.8256C106.013 39.113 106.963 31.4495 105.201 26.8999Z" fill="white"/>
</g>
<path d="M220.823 106.579C237.236 119.311 243.456 128.687 243.456 128.687C243.456 128.687 214.948 133.046 214.758 132.51C214.568 131.974 190.189 113.083 190.189 113.083L220.823 106.579Z" fill="#A0AAB6"/>
<path d="M139.324 283.011H145.285C152.507 283.011 158.347 277.147 158.347 269.933V149.809C158.347 145.467 154.839 141.955 150.503 141.955H134.106C129.77 141.955 126.262 145.467 126.262 149.809V269.933C126.262 277.164 132.102 283.011 139.324 283.011Z" fill="#151C2F"/>
<path d="M156.429 106.925L184.851 115.765C167.297 126.49 156.256 150.587 149.172 168.025C145.095 178.041 141.933 188.403 139.894 198.921L116.38 176.363C99.4302 153.373 124.621 101.856 156.429 106.925Z" fill="#151C2F"/>
<path d="M168.713 122.875L150.364 117.616C148.429 117.062 147.306 115.038 147.859 113.101C148.412 111.163 150.433 110.039 152.369 110.592L170.717 115.851C172.652 116.405 173.776 118.429 173.223 120.366C172.808 121.802 171.616 122.771 170.234 122.978C169.75 123.048 169.232 123.03 168.713 122.875ZM156.809 141.748C158.174 141.731 159.47 140.935 160.074 139.603C160.904 137.769 160.092 135.607 158.26 134.776L133.674 123.584C131.843 122.754 129.683 123.567 128.854 125.4C128.024 127.234 128.836 129.396 130.668 130.227L155.254 141.419C155.738 141.644 156.273 141.748 156.809 141.748ZM140.274 161.953C141.484 161.988 142.693 161.399 143.402 160.292C144.507 158.614 144.023 156.348 142.348 155.241L124.707 143.703C123.031 142.595 120.768 143.08 119.662 144.758C118.556 146.436 119.04 148.702 120.716 149.809L138.356 161.348C138.961 161.745 139.618 161.936 140.274 161.953ZM132.707 184.165C133.761 184.148 134.797 183.68 135.506 182.798C136.767 181.224 136.508 178.923 134.935 177.678L122.116 167.437C120.543 166.174 118.245 166.433 117.001 168.008C115.74 169.582 115.999 171.883 117.572 173.128L130.391 183.369C131.083 183.923 131.895 184.182 132.707 184.165Z" fill="#3F4B65"/>
<path d="M126.729 177.626C126.729 154.687 142.814 126.784 162.666 115.315C171.685 110.108 179.477 110.627 186.233 111.89C225.038 119.121 320.013 137.613 320.013 137.613L223.639 302.974C223.639 302.974 164.809 233.277 137.441 201.014C132.517 195.219 126.729 189.199 126.729 177.626Z" fill="#EDEDED"/>
<path d="M327.031 248.099C351.247 195.858 346.459 142.161 316.338 128.164C286.216 114.167 242.166 145.17 217.95 197.411C193.734 249.652 198.522 303.348 228.644 317.346C258.766 331.343 302.815 300.34 327.031 248.099Z" fill="#151C2F"/>
<path d="M336.351 251.946C360.567 199.705 355.78 146.008 325.658 132.011C295.536 118.013 251.487 149.016 227.271 201.257C203.055 253.498 207.842 307.195 237.964 321.192C268.086 335.189 312.135 304.187 336.351 251.946Z" fill="#3F4B65"/>
<path d="M219.889 270.193C221.047 283.392 224.952 293.858 230.774 301.192C243.421 317.09 265.157 318.561 288.55 302.109C322.76 278.029 347.45 224.714 343.735 183.023C341.558 158.182 329.706 143.045 313.24 140.018C302.131 137.942 288.861 141.436 275.057 151.141C240.864 175.187 216.175 228.502 219.889 270.193Z" fill="#151C2F"/>
<path d="M219.889 270.193C221.047 283.392 224.952 293.858 230.774 301.192C243.266 309.219 260.647 307.61 279.082 294.671C312.48 271.144 336.634 219.057 332.988 178.318C331.313 159.462 323.987 146.332 313.24 140.018C302.131 137.942 288.861 141.436 275.057 151.141C240.864 175.187 216.175 228.502 219.889 270.193Z" fill="#56667D"/>
<path d="M296.585 196.066L268.699 257.893L221.842 238.933C226.628 214.438 238.515 189.458 254.445 170.481L296.585 196.066Z" fill="#151C2F"/>
<path d="M259.127 242.583C260.492 257.858 271.74 263.083 284.266 254.277C296.792 245.455 305.845 225.942 304.481 210.667C303.116 195.392 291.868 190.167 279.342 198.99C266.815 207.795 257.762 227.308 259.127 242.583Z" fill="#3F4B65"/>
<path d="M200.072 221.237V217.586L131.826 176.588L87.3186 202.277C82.5845 205.01 84.2259 212.206 89.6511 212.639L200.072 221.237Z" fill="#151C2F"/>
<path d="M200.072 217.586L131.826 172.921L87.3186 198.609C82.5845 201.343 84.2259 208.539 89.6511 208.972L200.072 217.586Z" fill="#3F4B65"/>
<path d="M274.971 56.9481C280.171 54.5263 283.35 51.499 287.981 50.7551C289.449 50.5129 284.231 53.8343 283.333 55.6161C281.743 58.7991 284.974 59.1451 279.929 62.4319C278.893 63.1066 273.312 63.3488 273.312 63.3488L274.971 56.9481Z" fill="#FFDDC4"/>
<path d="M223.363 126.455C228.269 129.95 233.677 132.458 233.677 134.275C233.677 136.091 229.03 138.288 224.935 136.022C220.84 133.738 217.816 126.455 217.816 126.455H223.363Z" fill="#FFDDC4"/>
<path d="M165.586 190.773L162.925 196.291L170.389 210.182L151.729 197.001L158.122 186.5L165.586 190.773Z" fill="#151C2F"/>
<path d="M211.821 152.525C211.113 161.936 165.949 195.253 165.949 195.253L154.459 187.728L192.021 149.515C192.021 149.515 170.579 107.945 187.062 100.196C195.753 96.113 200.556 99.4171 206.862 111.025C211.735 120.037 212.132 148.425 211.821 152.525Z" fill="#A0AAB6"/>
<path d="M216.814 58.1765C212.477 53.523 211.683 48.8004 211.873 44.4584C222.844 46.5515 252.976 60.9962 276.405 55.6162L275.765 63.937C255.239 66.0994 234.074 64.2311 216.814 58.1765Z" fill="#23CCA0"/>
<path d="M223.362 108.153C211.976 111.284 189.792 112.928 178.596 109.156C180.013 94.9886 188.358 53.3846 202.215 44.9946C212.357 38.8535 219.51 50.513 217.799 63.1239C215.259 81.9106 220.356 97.8256 223.362 108.153Z" fill="#27E4B6"/>
<path d="M197.913 48.783C202.439 41.725 203.942 59.0413 204.098 61.567C205.653 87.2386 213.722 104.468 227.043 127.666L216.814 130.555C201.213 106.579 186.216 67.0334 197.913 48.783Z" fill="#23CCA0"/>
<path d="M211.113 45.9461C211.13 47.1224 204.754 45.8596 204.754 44.6314C204.754 43.5069 205.705 40.618 206.499 38.5248C207.052 37.0371 208.953 35.8954 210.352 37.4696C211.13 38.3345 211.095 44.839 211.113 45.9461Z" fill="#FFDDC4"/>
<path d="M215.622 37.1063C213.652 39.8395 209.523 40.5661 206.551 38.9746C203.579 37.383 201.921 33.8195 202.249 30.4635C202.577 27.1075 204.702 24.0628 207.571 22.2811C217.367 16.1399 219.82 31.3111 215.622 37.1063Z" fill="#FFDDC4"/>
<path d="M217.626 29.3563C215.328 30.7403 212.477 30.8094 209.782 30.6711C207.087 30.5327 204.322 30.2732 201.765 31.1035C196.824 32.7296 194.094 37.8847 190.258 41.4137C184.591 46.6034 176.16 48.143 168.679 46.4131C161.198 44.6832 154.632 40.0298 149.483 34.3211C146.633 31.1727 144.127 27.5918 142.952 23.5093C141.778 19.4267 142.089 14.7733 144.507 11.2789C147.98 6.24492 154.96 4.75721 160.973 5.86435C166.986 6.97148 172.359 10.1718 177.836 12.8704C183.313 15.5864 189.343 17.8871 195.39 17.0568C199.174 16.5378 202.681 14.8079 206.309 13.6143C209.938 12.4207 214.05 11.7979 217.505 13.424C223.466 16.2437 223.017 26.1041 217.626 29.3563Z" fill="#3F4B65"/>
<path d="M389.262 400.575C389.521 400.488 389.763 400.436 389.987 400.419C390.005 400.419 390.039 400.419 390.057 400.419C390.316 400.402 390.54 400.419 390.765 400.454C390.782 400.454 390.782 400.454 390.8 400.454C391.024 400.506 391.249 400.575 391.439 400.696L315.78 356.584L315.763 356.566C315.694 356.532 315.607 356.497 315.538 356.462C315.469 356.428 315.383 356.411 315.296 356.376C315.245 356.359 315.193 356.359 315.141 356.341C315.124 356.341 315.124 356.341 315.106 356.341C315.089 356.341 315.072 356.324 315.055 356.324C314.968 356.307 314.882 356.307 314.778 356.289C314.674 356.289 314.588 356.289 314.484 356.289C314.45 356.289 314.415 356.289 314.381 356.307C314.363 356.307 314.329 356.307 314.312 356.307C314.26 356.307 314.208 356.307 314.139 356.324C314.018 356.341 313.88 356.376 313.741 356.411C313.69 356.428 313.621 356.445 313.569 356.462C313.517 356.48 313.465 356.497 313.413 356.514C313.344 356.532 313.275 356.549 313.206 356.584C312.999 356.67 312.791 356.774 312.584 356.895C312.307 357.068 312.031 357.258 311.755 357.466C311.668 357.535 311.582 357.621 311.495 357.691C311.374 357.812 311.236 357.916 311.115 358.037C311.063 358.089 310.994 358.158 310.943 358.227C310.891 358.279 310.839 358.331 310.804 358.383C310.752 358.434 310.683 358.504 310.632 358.556C310.511 358.694 310.39 358.85 310.269 358.988C310.234 359.04 310.182 359.092 310.148 359.144C310.13 359.178 310.113 359.196 310.079 359.23C310.044 359.282 310.01 359.334 309.958 359.386C309.871 359.507 309.785 359.645 309.699 359.767C309.612 359.888 309.543 360.009 309.474 360.147C309.474 360.164 309.457 360.164 309.457 360.182C309.457 360.199 309.439 360.199 309.439 360.216C309.388 360.32 309.318 360.424 309.267 360.528C309.197 360.649 309.128 360.787 309.077 360.908C309.025 361.029 308.973 361.133 308.921 361.254C308.921 361.254 308.921 361.272 308.904 361.272C308.904 361.272 308.904 361.289 308.886 361.289C308.835 361.427 308.783 361.548 308.731 361.687C308.679 361.825 308.627 361.963 308.575 362.102C308.558 362.171 308.541 362.24 308.506 362.309C308.489 362.344 308.489 362.361 308.472 362.396C308.455 362.448 308.437 362.5 308.42 362.552C308.368 362.725 308.334 362.898 308.299 363.053C308.282 363.157 308.264 363.261 308.247 363.365C308.23 363.417 308.23 363.468 308.213 363.52C308.213 363.572 308.195 363.624 308.195 363.676C308.161 363.97 308.144 364.264 308.144 364.541C308.144 365.942 308.645 366.928 309.439 367.395L385.098 411.508C384.303 411.041 383.802 410.055 383.802 408.653C383.802 408.325 383.837 407.979 383.888 407.633C383.888 407.581 383.906 407.529 383.923 407.477C383.975 407.148 384.044 406.837 384.148 406.508C384.165 406.474 384.165 406.456 384.182 406.422C384.286 406.076 384.424 405.713 384.562 405.367C384.562 405.367 384.562 405.349 384.58 405.349C384.735 405.003 384.908 404.657 385.098 404.311C385.098 404.294 385.115 404.294 385.115 404.277C385.305 403.948 385.513 403.637 385.737 403.325C385.754 403.291 385.772 403.273 385.806 403.239C386.014 402.962 386.221 402.702 386.463 402.46C386.515 402.408 386.567 402.357 386.618 402.305C386.791 402.114 386.981 401.941 387.171 401.786C387.258 401.716 387.344 401.63 387.43 401.561C387.707 401.353 387.983 401.146 388.26 400.99C388.536 400.834 388.813 400.713 389.089 400.609C389.158 400.609 389.21 400.592 389.262 400.575Z" fill="#A0AAB6"/>
<path d="M308.264 363.693C308.264 363.641 308.282 363.589 308.282 363.538C308.282 363.486 308.299 363.434 308.316 363.382C308.334 363.278 308.351 363.174 308.368 363.071C308.403 362.898 308.437 362.725 308.489 362.569C308.506 362.517 308.524 362.465 308.541 362.413C308.558 362.379 308.558 362.361 308.575 362.327C308.593 362.257 308.61 362.188 308.645 362.119C308.696 361.981 308.748 361.842 308.8 361.704C308.852 361.566 308.904 361.444 308.956 361.306C308.956 361.306 308.956 361.289 308.973 361.289C308.973 361.289 308.973 361.271 308.99 361.271C309.042 361.15 309.094 361.047 309.146 360.925C309.215 360.804 309.267 360.666 309.336 360.545C309.387 360.441 309.457 360.337 309.508 360.234C309.508 360.216 309.526 360.216 309.526 360.199C309.526 360.182 309.543 360.182 309.543 360.164C309.612 360.043 309.698 359.905 309.768 359.784C309.854 359.645 309.94 359.524 310.027 359.403C310.061 359.351 310.096 359.299 310.148 359.247C310.165 359.213 310.182 359.196 310.217 359.161C310.251 359.109 310.303 359.057 310.338 359.005C310.459 358.85 310.58 358.711 310.701 358.573C310.752 358.504 310.804 358.452 310.873 358.4C310.925 358.348 310.977 358.296 311.012 358.244C311.063 358.192 311.133 358.123 311.184 358.054C311.305 357.933 311.444 357.829 311.564 357.708C311.651 357.639 311.737 357.552 311.824 357.483C312.1 357.275 312.377 357.068 312.653 356.912C312.86 356.791 313.068 356.687 313.275 356.601C313.344 356.566 313.413 356.549 313.482 356.532C313.534 356.514 313.586 356.497 313.638 356.48C313.69 356.462 313.759 356.445 313.811 356.428C313.949 356.393 314.07 356.359 314.208 356.341C314.26 356.324 314.329 356.324 314.381 356.324C314.398 356.324 314.433 356.324 314.45 356.324C314.484 356.324 314.519 356.324 314.553 356.307C314.657 356.307 314.744 356.307 314.847 356.307C314.934 356.307 315.037 356.324 315.124 356.341C315.141 356.341 315.158 356.359 315.175 356.359C315.193 356.359 315.193 356.359 315.21 356.359C315.262 356.376 315.314 356.376 315.366 356.393C315.452 356.41 315.521 356.445 315.607 356.48C315.677 356.514 315.763 356.549 315.832 356.583L315.849 356.601L319.875 358.953H319.858C319.823 358.953 319.789 358.953 319.754 358.971C319.737 358.971 319.702 358.971 319.685 358.971C319.616 358.971 319.564 358.988 319.495 358.988C319.357 359.005 319.218 359.04 319.08 359.074C319.028 359.092 318.959 359.109 318.89 359.144C318.838 359.161 318.786 359.178 318.717 359.196C318.648 359.213 318.579 359.247 318.51 359.265C318.285 359.351 318.061 359.472 317.836 359.593C317.525 359.766 317.232 359.974 316.938 360.216C316.851 360.285 316.748 360.372 316.661 360.458C316.523 360.579 316.385 360.683 316.247 360.822C316.178 360.891 316.126 360.96 316.057 361.012C316.005 361.064 315.953 361.116 315.901 361.185C315.849 361.254 315.78 361.306 315.728 361.375C315.59 361.531 315.469 361.687 315.348 361.842C315.296 361.894 315.262 361.963 315.227 362.015C315.21 362.05 315.175 362.067 315.158 362.102C315.124 362.154 315.072 362.206 315.037 362.275C314.934 362.413 314.847 362.552 314.761 362.69C314.674 362.828 314.588 362.967 314.519 363.088C314.519 363.105 314.502 363.105 314.502 363.122C314.502 363.14 314.484 363.14 314.484 363.157C314.415 363.261 314.363 363.382 314.294 363.486C314.225 363.624 314.156 363.762 314.087 363.901C314.035 364.022 313.966 364.143 313.914 364.264C313.914 364.281 313.914 364.281 313.897 364.281C313.897 364.281 313.897 364.299 313.88 364.299C313.811 364.437 313.759 364.576 313.707 364.731C313.655 364.887 313.603 365.025 313.551 365.181C313.534 365.25 313.5 365.337 313.482 365.406C313.465 365.44 313.465 365.475 313.448 365.51C313.43 365.562 313.413 365.631 313.396 365.683C313.344 365.873 313.309 366.046 313.258 366.236C313.24 366.34 313.223 366.461 313.206 366.565C313.189 366.617 313.189 366.686 313.171 366.738C313.171 366.79 313.154 366.842 313.137 366.894C313.102 367.205 313.068 367.516 313.085 367.828C313.085 368.572 313.223 369.229 313.465 369.731L309.526 367.43C308.731 366.963 308.23 365.977 308.23 364.576C308.195 364.281 308.213 363.987 308.264 363.693Z" fill="#EDEDED"/>
<path d="M388.294 401.007C389.521 400.298 390.644 400.229 391.439 400.678C392.251 401.146 402.272 415.625 402.272 415.625C402.272 415.625 385.979 412.009 385.184 411.542C384.372 411.075 383.871 410.089 383.871 408.671C383.854 405.868 385.841 402.408 388.294 401.007Z" fill="#EDEDED"/>
<path d="M398.16 409.76C400.372 412.892 402.255 415.625 402.255 415.625C402.255 415.625 399.3 414.967 395.845 414.172C394.48 412.13 397.002 409.276 398.16 409.76Z" fill="#8BB4F2"/>
<path d="M397.486 228.71C394.549 219.835 378.826 219.074 377.945 228.312C363.086 223.779 355.968 242.791 366.006 246.977L434.339 286.678C446.624 294.705 452.36 272.597 439.142 262.979C439.142 262.892 439.108 262.789 439.16 262.702C443.255 256.111 433.596 244.348 426.858 244.625C428.24 227.914 404.242 214.594 397.486 228.71Z" fill="#A0AAB6"/>
<path d="M393.979 231.218C391.042 222.344 375.319 221.582 374.438 230.82C359.579 226.288 352.461 245.299 362.499 249.486L430.832 289.187C443.116 297.213 448.852 275.105 435.635 265.487C435.635 265.401 435.601 265.297 435.652 265.21C439.747 258.619 430.089 246.856 423.351 247.133C424.75 230.422 400.752 217.102 393.979 231.218Z" fill="#B3BDC6"/>
<g opacity="0.77">
<g opacity="0.77">
<path opacity="0.77" d="M473.365 381.946C474.004 381.946 474.609 381.617 474.954 381.029C475.455 380.147 475.162 379.022 474.281 378.521L413.774 343.542C412.911 343.04 411.77 343.334 411.269 344.217C410.768 345.099 411.062 346.223 411.943 346.725L472.449 381.704C472.743 381.877 473.054 381.946 473.365 381.946Z" fill="#B3BDC6"/>
</g>
<g opacity="0.77">
<path opacity="0.77" d="M119.507 422.354C120.146 422.354 120.751 422.025 121.096 421.437C121.597 420.555 121.304 419.43 120.423 418.929L59.9337 383.95C59.0698 383.449 57.9295 383.743 57.4284 384.625C56.9274 385.507 57.2211 386.632 58.1022 387.133L118.591 422.112C118.885 422.267 119.196 422.354 119.507 422.354Z" fill="#B3BDC6"/>
</g>
<g opacity="0.77">
<path opacity="0.77" d="M313.154 112.53C313.794 112.53 314.398 112.201 314.744 111.613C315.245 110.731 314.951 109.606 314.07 109.104L253.564 74.126C252.683 73.6243 251.56 73.9184 251.059 74.8006C250.558 75.6829 250.851 76.8073 251.733 77.309L312.239 112.288C312.532 112.443 312.843 112.53 313.154 112.53Z" fill="#B3BDC6"/>
</g>
<g opacity="0.77">
<path opacity="0.77" d="M133.156 294.705C133.796 294.705 134.4 294.376 134.746 293.788C135.247 292.906 134.953 291.782 134.072 291.28L73.566 256.301C72.6848 255.8 71.5618 256.094 71.0607 256.976C70.5597 257.858 70.8534 258.983 71.7346 259.484L132.241 294.463C132.534 294.619 132.845 294.705 133.156 294.705Z" fill="#B3BDC6"/>
</g>
<g opacity="0.77">
<path opacity="0.77" d="M369.41 305.033C370.049 305.033 370.654 304.704 371 304.116C371.501 303.233 371.207 302.109 370.326 301.607L309.837 266.629C308.973 266.127 307.833 266.421 307.332 267.304C306.831 268.186 307.124 269.31 308.006 269.812L368.494 304.79C368.788 304.946 369.099 305.033 369.41 305.033Z" fill="#B3BDC6"/>
</g>
<g opacity="0.77">
<path opacity="0.77" d="M330.225 431.263C330.864 431.263 331.469 430.934 331.814 430.346C332.315 429.464 332.021 428.34 331.14 427.838L270.651 392.859C269.788 392.358 268.647 392.652 268.146 393.534C267.645 394.416 267.939 395.541 268.82 396.042L329.309 431.021C329.603 431.177 329.914 431.263 330.225 431.263Z" fill="#B3BDC6"/>
</g>
<g opacity="0.77">
<path opacity="0.77" d="M111.525 196.135C112.164 196.135 112.769 195.807 113.114 195.219C113.615 194.336 113.322 193.212 112.44 192.71L3.74714 129.88C2.88326 129.379 1.74294 129.673 1.24189 130.555C0.740837 131.437 1.03456 132.562 1.91571 133.063L110.609 195.893C110.885 196.066 111.214 196.135 111.525 196.135Z" fill="#B3BDC6"/>
</g>
</g>
</svg>
