<svg width="152" height="49" viewBox="0 0 152 49" fill="none" xmlns="http://www.w3.org/2000/svg">
<path d="M2.32296 37.9907H0V47.9059H2.32296V37.9907Z" fill="black"/>
<path d="M13.7498 40.1255C12.9088 40.1255 12.1619 40.3431 11.5915 40.7488V40.2019H9.41553V47.9059H11.6679V44.0127C11.6679 42.8189 12.2678 42.1603 13.3616 42.1603C14.3026 42.1603 14.7613 42.6778 14.7613 43.7422V47.9H17.0137V43.5305C17.0195 41.4016 15.7963 40.1255 13.7498 40.1255Z" fill="black"/>
<path d="M27.7991 45.8123C27.6109 45.9593 27.3463 46.0417 27.0463 46.0417C26.7229 46.0417 26.3524 45.9534 26.3524 45.2713V42.1779H28.2578V40.2548H26.3524V38.6317H24.1V40.2548H22.9297V42.1779H24.1V45.3065C24.1 47.0179 25.0997 48 26.8464 48C27.5462 48 28.199 47.8 28.6283 47.4531L28.7988 47.3178L28.1108 45.5594L27.7991 45.8123Z" fill="black"/>
<path d="M38.0023 40.1255C35.7029 40.1255 34.0327 41.778 34.0327 44.0598C34.0327 46.3827 35.7676 48.0059 38.2552 48.0059C39.5784 48.0059 40.6487 47.5707 41.3427 46.7415L41.5073 46.5474L40.2371 45.0889L40.0136 45.3183C39.5608 45.7829 39.0138 46.0005 38.2905 46.0005C37.3495 46.0005 36.6615 45.5888 36.3733 44.8831H41.8367L41.8602 44.6126C41.872 44.442 41.8896 44.2362 41.8896 44.0951C41.8955 41.7604 40.29 40.1255 38.0023 40.1255ZM38.0023 42.0485C38.808 42.0485 39.4255 42.4896 39.649 43.1953H36.3498C36.585 42.4778 37.1908 42.0485 38.0023 42.0485Z" fill="black"/>
<path d="M50.4054 40.7841V40.2078H48.2295V47.9118H50.4819V44.1656C50.4819 42.9189 51.0935 42.2602 52.252 42.2602C52.3579 42.2602 52.4579 42.272 52.5872 42.2955L52.9342 42.3602V40.1255H52.6402C51.7169 40.1255 50.9582 40.3489 50.4054 40.7841Z" fill="black"/>
<path d="M63.4255 40.1255C62.5846 40.1255 61.8377 40.3431 61.2672 40.7488V40.2019H59.0913V47.9059H61.3437V44.0127C61.3437 42.8189 61.9436 42.1603 63.0374 42.1603C63.9784 42.1603 64.4371 42.6778 64.4371 43.7422V47.9H66.6895V43.5305C66.6895 41.4016 65.4662 40.1255 63.4255 40.1255Z" fill="black"/>
<path d="M76.5637 40.1255C75.2934 40.1255 74.1584 40.4607 73.3703 41.0664L73.1704 41.2193L74.1113 42.9659L74.3877 42.7366C74.8641 42.3426 75.6227 42.0956 76.3578 42.0956C77.2753 42.0956 77.7575 42.4425 77.8281 43.16H76.2932C73.3586 43.16 73.041 44.8478 73.041 45.5712C73.041 47.0002 74.2525 48 75.9874 48C76.7754 48 77.4458 47.8118 77.9339 47.4648V47.9059H80.0922V43.4423C80.0922 41.3016 78.8396 40.1255 76.5637 40.1255ZM77.8398 45.3301C77.6105 45.877 77.0518 46.2004 76.3343 46.2004C76.0873 46.2004 75.2699 46.1534 75.2699 45.5065C75.2699 45.3124 75.2699 44.8537 76.4167 44.8537H77.8398V45.3301Z" fill="black"/>
<path d="M90.8894 45.8123C90.7012 45.9593 90.4366 46.0417 90.1367 46.0417C89.8132 46.0417 89.4427 45.9534 89.4427 45.2713V42.1779H91.3481V40.2548H89.4427V38.6317H87.1903V40.2548H86.02V42.1779H87.1903V45.3065C87.1903 47.0179 88.1901 48 89.9367 48C90.6365 48 91.2893 47.8 91.7186 47.4531L91.8892 47.3178L91.1952 45.5594L90.8894 45.8123Z" fill="black"/>
<path d="M99.0758 37.0321C98.3113 37.0321 97.7173 37.6026 97.7173 38.3259C97.7173 39.0493 98.3171 39.6197 99.0758 39.6197C99.852 39.6197 100.434 39.0493 100.434 38.2847C100.44 37.5731 99.852 37.0321 99.0758 37.0321Z" fill="black"/>
<path d="M100.199 40.2078H97.9463V47.9118H100.199V40.2078Z" fill="black"/>
<path d="M110.62 40.1255C108.256 40.1255 106.539 41.778 106.539 44.0598C106.539 46.3475 108.256 48.0059 110.62 48.0059C112.99 48.0059 114.713 46.3475 114.713 44.0598C114.707 41.778 112.99 40.1255 110.62 40.1255ZM110.62 45.9887C109.538 45.9887 108.809 45.2124 108.809 44.0598C108.809 42.9071 109.538 42.1308 110.62 42.1308C111.714 42.1308 112.443 42.9071 112.443 44.0598C112.443 45.2124 111.708 45.9887 110.62 45.9887Z" fill="black"/>
<path d="M125.381 40.1255C124.54 40.1255 123.793 40.3431 123.223 40.7488V40.2019H121.047V47.9059H123.299V44.0127C123.299 42.8189 123.899 42.1603 124.993 42.1603C125.934 42.1603 126.393 42.6778 126.393 43.7422V47.9H128.645V43.5305C128.645 41.4016 127.428 40.1255 125.381 40.1255Z" fill="black"/>
<path d="M138.519 40.1255C137.248 40.1255 136.113 40.4607 135.325 41.0664L135.125 41.2193L136.066 42.9659L136.343 42.7366C136.819 42.3426 137.578 42.0956 138.313 42.0956C139.23 42.0956 139.713 42.4425 139.783 43.16H138.248C135.314 43.16 134.996 44.8478 134.996 45.5712C134.996 47.0002 136.208 48 137.942 48C138.73 48 139.401 47.8118 139.889 47.4648V47.9059H142.047V43.4423C142.047 41.3016 140.795 40.1255 138.519 40.1255ZM139.795 45.3301C139.566 45.877 139.007 46.2004 138.289 46.2004C138.042 46.2004 137.225 46.1534 137.225 45.5065C137.225 45.3124 137.225 44.8537 138.372 44.8537H139.795V45.3301Z" fill="black"/>
<path d="M151.175 37.432H148.922V47.9059H151.175V37.432Z" fill="black"/>
<path d="M57.3097 0L46.2301 20.3479V29.5398H40.408V20.3479L29.5342 0H36.7207L43.5013 13.6496L50.1233 0H57.3097Z" fill="black"/>
<path d="M64.7314 0H73.5646C77.3401 0 80.4394 0.729233 82.8741 2.1877C85.3088 3.64616 87.0789 5.53394 88.1904 7.84514C89.3019 10.1622 89.8547 12.644 89.8547 15.2904C89.8547 18.125 89.1843 20.6302 87.8493 22.7944C86.5085 24.9645 84.7089 26.6288 82.4506 27.7932C80.1865 28.9576 77.7047 29.5398 75.0054 29.5398H64.7314V0ZM74.0056 23.9235C77.0284 23.9235 79.422 23.1473 81.1921 21.5947C82.9564 20.0421 83.8385 17.8074 83.8385 14.8905C83.8385 12.5381 83.3504 10.6621 82.3742 9.26832C81.398 7.87454 80.2571 6.91595 78.9633 6.38079C77.6636 5.84563 76.4403 5.5751 75.2877 5.5751H70.5535V23.9177H74.0056V23.9235Z" fill="black"/>
<path d="M118.842 0V5.62215H104.51V11.9265H117.195V17.5486H104.51V23.9294H119.401V29.5516H98.688V0H118.842Z" fill="black"/>
<path d="M144.365 29.5398L138.143 20.148H134.25V29.5398H128.428V0H137.378C141.042 0 143.889 0.888018 145.906 2.66993C147.923 4.45185 148.934 6.88067 148.934 9.95638C148.934 11.7736 148.552 13.4849 147.794 15.0728C147.029 16.6665 145.859 17.9133 144.283 18.8248L151.146 29.5398H144.365ZM134.25 14.5317H138.384C139.96 14.5317 141.113 14.073 141.836 13.1497C142.56 12.2264 142.918 11.2325 142.918 10.1622C142.918 9.09189 142.612 8.06861 141.995 7.09238C141.377 6.11615 140.19 5.62803 138.425 5.62803H134.25V14.5317Z" fill="black"/>
<path d="M22.8946 3.4521L0.488281 14.7787V26.1054L22.8946 3.4521Z" fill="#27E4B6"/>
<path d="M6.61605 10.3563L11.6913 7.78633L6.61605 8.70375V5.58098H11.3502C12.4087 5.58098 13.532 5.81034 14.7141 6.26317L20.5597 3.30507C20.0539 2.91105 19.5129 2.53467 18.9307 2.1877C16.5019 0.729233 13.3967 0 9.62707 0H0.793945V13.2967L6.61605 10.3563Z" fill="black"/>
<path d="M22.6709 5.35751L18.5778 9.49767C19.4541 10.862 19.901 12.6557 19.901 14.8905C19.901 17.8074 19.0189 20.0421 17.2546 21.5947C15.4903 23.1473 13.0909 23.9235 10.0681 23.9235H6.61605L12.2735 15.8726L6.71014 21.4947L6.61605 21.5947L1.32911 26.9346L0.793945 27.4756V29.5398H11.0679C13.7731 29.5398 16.2549 28.9576 18.5131 27.7932C20.7714 26.6288 22.571 24.9645 23.9118 22.7944C25.2468 20.6244 25.9172 18.125 25.9172 15.2904C25.9172 12.644 25.3644 10.1622 24.2529 7.84514C23.8295 6.95124 23.3002 6.12791 22.6709 5.35751Z" fill="black"/>
</svg>
