<svg width="31" height="35" viewBox="0 0 31 35" fill="none" xmlns="http://www.w3.org/2000/svg">
<path d="M9.89805 21.2865C10.2436 21.0872 10.3618 20.6449 10.1625 20.2994C9.96297 19.9541 9.52091 19.8356 9.17539 20.0348C8.82987 20.2344 8.71131 20.6768 8.91089 21.022C9.11018 21.3675 9.55253 21.4861 9.89805 21.2865Z" fill="#27E4B6"/>
<path d="M6.93636 26.2743L10.5756 32.578C11.3609 33.9398 13.1275 34.444 14.5245 33.6363C15.9069 32.8375 16.382 31.0712 15.5823 29.6877L13.4143 25.9321L15.2918 24.8482C15.6373 24.6483 15.7559 24.2065 15.5563 23.861L14.6166 22.2333C14.7286 22.2116 15.4654 22.0671 28.4582 19.5183C30.0645 19.4311 31.0268 17.6744 30.2155 16.27L27.8138 12.1102L29.3486 9.78558C29.4993 9.55692 29.5084 9.26306 29.3714 9.02594L27.9261 6.52261C27.7892 6.28549 27.5292 6.14661 27.2568 6.1627L24.4766 6.32953L21.8104 1.7113C21.4242 1.04228 20.7323 0.637199 19.96 0.627602C19.9507 0.627319 19.9416 0.627319 19.9323 0.627319C19.1859 0.627319 18.5085 0.99881 18.107 1.6269L8.66678 13.6529L2.52957 17.1962C0.115726 18.5893 -0.72041 21.686 0.678043 24.1063C1.95568 26.3194 4.64927 27.19 6.93636 26.2743ZM14.3309 30.4106C14.73 31.1011 14.4938 31.9847 13.8013 32.3847C13.1066 32.7864 12.2219 32.5396 11.8273 31.8557L8.21399 25.5965L10.7173 24.1512C14.8991 31.3953 14.2637 30.2946 14.3309 30.4106ZM12.6916 24.6802L11.969 23.4285L13.2206 22.7059L13.9433 23.9575L12.6916 24.6802ZM26.8978 7.632L27.8965 9.36186L27.0059 10.7106L25.2845 7.72883L26.8978 7.632ZM19.3158 2.41928C19.5097 2.10199 19.8174 2.06924 19.9422 2.07263C20.0656 2.07404 20.373 2.11243 20.5584 2.43368L28.9638 16.9927C29.2376 17.4666 28.9048 18.0625 28.3558 18.0761C28.2573 18.0783 28.2118 18.0961 27.9594 18.1433L19.0682 2.74306C19.2548 2.50312 19.2788 2.47997 19.3158 2.41928ZM18.1065 3.96819L26.4602 18.4374L13.8527 20.9102L10.0192 14.2706L18.1065 3.96819ZM1.92971 23.3837C1.61242 22.8346 1.44474 22.2113 1.44474 21.5807C1.44474 20.2918 2.13747 19.0915 3.25222 18.4479L8.88471 15.1959L12.498 21.4542L6.86551 24.7065C5.13988 25.7024 2.9259 25.109 1.92971 23.3837Z" fill="#27E4B6"/>
<path d="M7.65904 21.7446C7.45946 21.3991 7.0174 21.2805 6.67188 21.4801L5.42022 22.2028C5.07526 22.4021 4.63235 22.2832 4.43306 21.9383C4.23348 21.5927 3.79142 21.4742 3.4459 21.6738C3.10038 21.8733 2.98182 22.3154 3.1814 22.6609C3.77618 23.6913 5.10293 24.0546 6.14287 23.4544L7.39454 22.7318C7.74006 22.5322 7.85862 22.0904 7.65904 21.7446Z" fill="#27E4B6"/>
</svg>
