<svg width="31" height="29" viewBox="0 0 31 29" fill="none" xmlns="http://www.w3.org/2000/svg">
<path d="M18.3449 22.994L17.5309 19.8401C17.4292 19.467 17.0562 19.2296 16.6831 19.3314C16.3101 19.4331 16.0727 19.8062 16.1744 20.1792L16.9883 23.3671C16.1405 23.8419 15.564 24.7236 15.564 25.741C15.564 27.2671 16.7848 28.488 18.311 28.488C19.8371 28.488 21.0579 27.2671 21.0579 25.741C21.0919 24.2488 19.871 23.0279 18.3449 22.994Z" fill="#3F4B65"/>
<path d="M9.19055 15.2272L4.88354 16.7194C4.37484 16.109 3.62874 15.702 2.74699 15.702C1.22089 15.702 0 16.9229 0 18.449C0 19.9751 1.22089 21.196 2.74699 21.196C4.2731 21.196 5.49398 19.9751 5.49398 18.449C5.49398 18.3134 5.46007 18.1438 5.46007 18.0081L9.63143 16.5498C10.0045 16.4142 10.174 16.0411 10.0723 15.6681C9.97056 15.2951 9.5636 15.0916 9.19055 15.2272Z" fill="#3F4B65"/>
<path d="M27.7716 12.2773C26.4828 12.2773 25.4315 13.1591 25.1263 14.3122H21.8367C21.4636 14.3122 21.1245 14.6174 21.1245 14.9904C21.1245 15.3635 21.4297 15.6687 21.8367 15.6687H25.0924C25.3976 16.8557 26.4828 17.7035 27.7376 17.7035C29.2637 17.7035 30.4846 16.4826 30.4846 14.9565C30.4846 13.4304 29.2977 12.2773 27.7716 12.2773Z" fill="#3F4B65"/>
<path d="M15.5644 18.5841C18.1116 18.5841 20.1766 16.5343 20.1766 14.0058C20.1766 11.4773 18.1116 9.42749 15.5644 9.42749C13.0171 9.42749 10.9521 11.4773 10.9521 14.0058C10.9521 16.5343 13.0171 18.5841 15.5644 18.5841Z" fill="#3F4B65"/>
<path d="M11.3945 8.88632L9.90232 7.76718C10.038 7.42805 10.1058 7.08891 10.1058 6.71586C10.1058 5.18976 8.88491 3.96887 7.35881 3.96887C5.8327 3.96887 4.61182 5.18976 4.61182 6.71586C4.61182 8.24197 5.8327 9.46285 7.35881 9.46285C8.00316 9.46285 8.57969 9.22546 9.05448 8.88632L10.5467 10.0394C10.6823 10.1411 10.818 10.175 10.9536 10.175C11.1571 10.175 11.3606 10.0733 11.4963 9.90373C11.7676 9.56459 11.6997 9.12372 11.3945 8.88632Z" fill="#3F4B65"/>
<path d="M18.4476 9.15664C18.5493 9.22446 18.685 9.25838 18.8207 9.25838C19.058 9.25838 19.2954 9.12272 19.4311 8.91924L21.6016 5.32441C21.9068 5.42616 22.212 5.49398 22.5172 5.49398C24.0433 5.49398 25.2642 4.2731 25.2642 2.74699C25.2642 1.22088 24.0433 0 22.5172 0C20.9911 0 19.7702 1.22088 19.7702 2.74699C19.7702 3.42526 20.0415 4.0357 20.4485 4.5444L18.2441 8.20706C18.0067 8.51228 18.1085 8.95316 18.4476 9.15664Z" fill="#3F4B65"/>
</svg>
