<svg width="30" height="30" viewBox="0 0 30 30" fill="none" xmlns="http://www.w3.org/2000/svg">
<path d="M17.4424 18.142C15.5573 18.142 14.0229 19.6763 14.0229 21.5614C14.0229 23.4465 15.5573 24.9808 17.4424 24.9808C19.3274 24.9808 20.8618 23.4465 20.8618 21.5614C20.8618 19.6763 19.3274 18.142 17.4424 18.142ZM17.4424 24.0038C16.0956 24.0038 14.9999 22.9081 14.9999 21.5614C14.9999 20.2146 16.0956 19.1189 17.4424 19.1189C18.7891 19.1189 19.8848 20.2146 19.8848 21.5614C19.8848 22.9081 18.7891 24.0038 17.4424 24.0038Z" fill="#27E4B6"/>
<path d="M23.3042 9.34912C21.4191 9.34912 19.8848 10.8835 19.8848 12.7685C19.8848 14.6536 21.4191 16.188 23.3042 16.188C25.1893 16.188 26.7236 14.6536 26.7236 12.7685C26.7236 10.8835 25.1893 9.34912 23.3042 9.34912ZM23.3042 15.211C21.9574 15.211 20.8617 14.1153 20.8617 12.7685C20.8617 11.4218 21.9574 10.3261 23.3042 10.3261C24.6509 10.3261 25.7466 11.4218 25.7466 12.7685C25.7466 14.1153 24.6509 15.211 23.3042 15.211Z" fill="#27E4B6"/>
<path d="M6.2075 8.37219C4.32243 8.37219 2.78809 9.90653 2.78809 11.7916C2.78809 13.6767 4.32243 15.211 6.2075 15.211C8.09258 15.211 9.62692 13.6767 9.62692 11.7916C9.62692 9.90653 8.09258 8.37219 6.2075 8.37219ZM6.2075 14.234C4.86074 14.234 3.76506 13.1384 3.76506 11.7916C3.76506 10.4448 4.86074 9.34917 6.2075 9.34917C7.55427 9.34917 8.64994 10.4448 8.64994 11.7916C8.64994 13.1384 7.55427 14.234 6.2075 14.234Z" fill="#27E4B6"/>
<path d="M29.9999 19.9527L29.3092 19.262L27.2121 21.359L25.115 19.262L24.4243 19.9527L26.5214 22.0498L24.4243 24.1468L25.115 24.8376L27.2121 22.7405L29.3092 24.8376L29.9999 24.1468L27.9028 22.0498L29.9999 19.9527Z" fill="#27E4B6"/>
<path d="M5.5756 0.901782L4.88488 0.21106L2.7878 2.30814L0.690722 0.21106L0 0.901782L2.09708 2.99886L0 5.09594L0.690722 5.78666L2.7878 3.68958L4.88488 5.78666L5.5756 5.09594L3.47852 2.99886L5.5756 0.901782Z" fill="#27E4B6"/>
<path d="M28.0458 3.34416L27.3551 2.65344L25.258 4.75052L23.1609 2.65344L22.4702 3.34416L24.5673 5.44124L22.4702 7.53832L23.1609 8.22904L25.258 6.13196L27.3551 8.22904L28.0458 7.53832L25.9487 5.44124L28.0458 3.34416Z" fill="#27E4B6"/>
<path d="M18.1496 8.42397L15.2187 6.9585C15.0917 6.895 14.9442 6.89011 14.8133 6.94434C14.6823 6.99856 14.5812 7.107 14.5373 7.24085L13.5603 10.1718L14.4865 10.481L15.0936 8.65893C15.14 8.75174 15.1825 8.83576 15.2177 8.90122C15.4962 9.42146 15.5983 10.0081 15.5587 10.8615C15.4708 12.7608 14.7937 14.6742 13.6516 16.2495C13.424 16.5632 13.1338 16.867 12.8315 17.1762C11.9356 18.0931 10.7906 18.7447 9.57812 19.4345C7.85279 20.4163 6.08202 21.4407 5.06792 23.2857C4.6654 23.1196 4.22576 23.0268 3.76463 23.0268C1.87956 23.0268 0.345215 24.5612 0.345215 26.4462C0.345215 28.3313 1.87956 29.8657 3.76463 29.8657C5.64971 29.8657 7.18405 28.3313 7.18405 26.4462C7.18405 25.3711 6.68432 24.4117 5.90616 23.7845C6.78349 22.1632 8.37351 21.2443 10.0612 20.284C11.279 19.5908 12.5384 18.8742 13.5305 17.8596C13.8592 17.523 14.1763 17.1904 14.4425 16.823C15.695 15.0952 16.4384 12.9938 16.5347 10.9065C16.5659 10.2289 16.542 9.34623 16.1043 8.49382L17.7124 9.29787L18.1496 8.42397ZM6.20707 26.4462C6.20707 27.793 5.11139 28.8887 3.76463 28.8887C2.41787 28.8887 1.32219 27.793 1.32219 26.4462C1.32219 25.0995 2.41787 24.0038 3.76463 24.0038C5.11139 24.0038 6.20707 25.0995 6.20707 26.4462Z" fill="#27E4B6"/>
<path d="M11.6253 0.134277L10.8452 0.720951C10.983 0.905111 11.1627 1.17134 11.365 1.49179L12.191 0.97008C11.9722 0.623254 11.7816 0.341885 11.6253 0.134277Z" fill="#27E4B6"/>
<path d="M14.5692 5.31226L13.6841 5.72552C13.8448 6.07039 13.9694 6.36104 14.0548 6.58916L14.9693 6.24722C14.8755 5.99516 14.7407 5.68106 14.5692 5.31226Z" fill="#27E4B6"/>
<path d="M12.7064 1.81909L11.8652 2.3154C12.0225 2.58309 12.1847 2.86543 12.3469 3.15462L13.1988 2.67639C13.0337 2.38134 12.8676 2.09265 12.7064 1.81909Z" fill="#27E4B6"/>
<path d="M13.6737 3.54395L12.8125 4.00361C12.9674 4.29475 13.1188 4.58394 13.2604 4.86237L14.1314 4.4198C13.9868 4.1355 13.833 3.84046 13.6737 3.54395Z" fill="#27E4B6"/>
</svg>
