<svg width="28" height="28" viewBox="0 0 28 28" fill="none" xmlns="http://www.w3.org/2000/svg">
<path d="M11.6727 1.87219C6.2624 1.87219 1.87646 6.25813 1.87646 11.6685C1.87646 17.0788 6.2624 21.4648 11.6727 21.4648C17.0831 21.4648 21.469 17.0788 21.469 11.6685C21.4631 6.26058 17.0806 1.87808 11.6727 1.87219ZM11.6727 2.80517C14.5543 2.80745 17.2545 4.21181 18.9108 6.56974L17.7446 7.73597C17.4608 7.56424 17.1359 7.47234 16.8041 7.47007C15.7736 7.47007 14.9382 8.30549 14.9382 9.33603C14.9398 9.66811 15.0312 9.99355 15.2027 10.2779L12.1481 13.3324C11.5697 12.9798 10.8428 12.9798 10.2644 13.3324L8.14282 11.2109C8.31431 10.9265 8.40569 10.6011 8.40732 10.269C8.4086 9.24052 7.57592 8.40573 6.54743 8.40445C5.69684 8.4034 4.95366 8.97876 4.74164 9.80252H3.01097C3.89421 5.72382 7.49953 2.81129 11.6727 2.80517ZM17.7371 9.33603C17.7371 9.85133 17.3194 10.269 16.8041 10.269C16.2888 10.269 15.8712 9.85133 15.8712 9.33603C15.8712 8.82073 16.2888 8.40305 16.8041 8.40305C17.3194 8.40305 17.7371 8.82073 17.7371 9.33603ZM12.1392 14.9339C12.1392 15.4492 11.7216 15.8669 11.2063 15.8669C10.691 15.8669 10.2733 15.4492 10.2733 14.9339C10.2733 14.4186 10.691 14.0009 11.2063 14.0009C11.7216 14.0009 12.1392 14.4186 12.1392 14.9339ZM7.47434 10.269C7.47434 10.7843 7.05666 11.202 6.54136 11.202C6.02607 11.202 5.60838 10.7843 5.60838 10.269C5.60838 9.75371 6.02607 9.33603 6.54136 9.33603C7.05666 9.33603 7.47434 9.75371 7.47434 10.269ZM15.9793 19.4184C14.6619 20.1498 13.1796 20.5331 11.6727 20.5317C6.78102 20.5351 2.81277 16.5723 2.80944 11.6805C2.80921 11.3649 2.82589 11.0493 2.85936 10.7354H4.74164C4.95372 11.5568 5.69311 12.1317 6.54136 12.1349C6.87344 12.1333 7.19888 12.0419 7.4832 11.8704L9.6048 13.992C9.43331 14.2763 9.34193 14.6018 9.3403 14.9338C9.3403 15.9644 10.1757 16.7998 11.2063 16.7998C12.2368 16.7998 13.0722 15.9644 13.0722 14.9338C13.0706 14.6018 12.9792 14.2763 12.8077 13.992L15.8623 10.9374C16.1466 11.1089 16.4721 11.2003 16.8041 11.2019C17.8347 11.2019 18.6701 10.3665 18.6701 9.33597C18.6685 9.00389 18.5771 8.67845 18.4056 8.39413L19.4225 7.37765C21.7967 11.6535 20.2551 17.0443 15.9793 19.4184Z" fill="#27E4B6"/>
<path d="M23.3351 4.67042C24.1833 4.66722 24.9227 4.09233 25.1348 3.27096H28V2.33798H25.1348C24.9227 1.5166 24.1833 0.941713 23.3351 0.938506C22.3045 0.938506 21.4691 1.77393 21.4691 2.80447C21.4708 3.13655 21.5621 3.46198 21.7336 3.74631L20.914 4.56593C16.9923 -0.543357 9.67119 -1.50608 4.5619 2.41565C-0.547385 6.33737 -1.5101 13.6585 2.41162 18.7678C6.11345 23.5906 12.8992 24.7605 18.0022 21.4557L19.41 22.8635L20.0697 23.5231L23.8249 27.2784C24.78 28.2335 26.3284 28.2335 27.2835 27.2784C28.2385 26.3233 28.2385 24.7749 27.2835 23.8198L23.5282 20.0646L22.8686 19.405L21.4607 17.9971C23.9599 14.1476 23.9599 9.18797 21.4607 5.33844L22.3937 4.40546C22.6779 4.57701 23.0032 4.66856 23.3351 4.67042ZM23.3351 1.87149C23.8504 1.87149 24.2681 2.28917 24.2681 2.80447C24.2681 3.31976 23.8504 3.73745 23.3351 3.73745C22.8198 3.73745 22.4021 3.31976 22.4021 2.80447C22.4021 2.28917 22.8198 1.87149 23.3351 1.87149ZM26.6238 24.4794C27.2213 25.0635 27.2322 26.0213 26.6482 26.6188C26.0641 27.2162 25.1063 27.2271 24.5088 26.6431C24.5006 26.6351 24.4926 26.627 24.4845 26.6188L20.7293 22.8635L22.8686 20.7242L26.6238 24.4794ZM22.209 20.0646L20.0697 22.2039L18.7784 20.9127C18.8442 20.8623 18.9058 20.8068 18.9706 20.755C19.0354 20.7032 19.1106 20.6412 19.1801 20.5829C19.2822 20.497 19.383 20.4103 19.4819 20.3212C19.5327 20.2745 19.5812 20.2279 19.6312 20.1812C19.8224 20.0021 20.0076 19.8169 20.1867 19.6256C20.2334 19.5757 20.28 19.5272 20.3267 19.4763C20.4158 19.3775 20.5026 19.2767 20.5884 19.1745C20.6469 19.1055 20.7043 19.0357 20.7605 18.9651C20.8118 18.9007 20.8674 18.8391 20.9177 18.7733L22.209 20.0646ZM20.3999 17.8977C20.253 18.103 20.1014 18.3041 19.9414 18.4977C19.8947 18.5541 19.8448 18.6087 19.7968 18.6642C19.654 18.8303 19.5066 18.9914 19.3545 19.1475C19.2883 19.2159 19.2209 19.2832 19.1525 19.3495C18.997 19.5015 18.836 19.6489 18.6693 19.7917C18.6137 19.8383 18.5592 19.8892 18.5027 19.9363C18.3091 20.0963 18.1081 20.2479 17.9028 20.3949C13.0737 23.8448 6.36214 22.7268 2.91216 17.8977C-0.537822 13.0686 0.580179 6.35708 5.40928 2.90709C10.2384 -0.542891 16.9499 0.575052 20.3999 5.40421C23.0695 9.14091 23.0695 14.161 20.3999 17.8977Z" fill="#27E4B6"/>
</svg>
