<svg width="33" height="33" viewBox="0 0 33 33" fill="none" xmlns="http://www.w3.org/2000/svg">
<path d="M26.5001 8.9H6.50003C6.16842 8.9 5.9 9.1687 5.9 9.50003V22.5C5.9 22.8313 6.16834 23.1 6.50003 23.1H26.5001C26.8317 23.1 27.1001 22.8313 27.1001 22.5V9.49995C27.1001 9.16861 26.8316 8.9 26.5001 8.9ZM25.9 21.9H7.10005V10.1H25.9V21.9Z" fill="#27E4B6" stroke="#27E4B6" stroke-width="0.2"/>
<path d="M17.5 21.9H16C15.6684 21.9 15.4 22.1687 15.4 22.5V25.5C15.4 25.8313 15.6683 26.1001 16 26.1001H17.5C17.8316 26.1001 18.1001 25.8313 18.1001 25.5V22.5C18.1001 22.1687 17.8316 21.9 17.5 21.9ZM16.9 24.9H16.6V23.1H16.9V24.9Z" fill="#27E4B6" stroke="#27E4B6" stroke-width="0.2"/>
<path d="M16.5 0.9C7.89788 0.9 0.9 7.89817 0.9 16.5C0.9 25.1019 7.89788 32.1001 16.5 32.1001C25.1022 32.1001 32.1001 25.1019 32.1001 16.5C32.1001 7.89817 25.1021 0.9 16.5 0.9ZM16.5 30.9C8.56014 30.9 2.10005 24.4402 2.10005 16.5C2.10005 8.55992 8.56014 2.09998 16.5 2.09998C24.4399 2.09998 30.9 8.55985 30.9 16.5C30.9 24.4402 24.4399 30.9 16.5 30.9Z" fill="#27E4B6" stroke="#27E4B6" stroke-width="0.2"/>
<path d="M19 24.9H14.5C14.1684 24.9 13.9 25.1687 13.9 25.5C13.9 25.8313 14.1683 26.1 14.5 26.1H19C19.3316 26.1 19.6001 25.8313 19.6001 25.5C19.6001 25.1687 19.3316 24.9 19 24.9Z" fill="#27E4B6" stroke="#27E4B6" stroke-width="0.2"/>
</svg>
