<svg width="34" height="30" viewBox="0 0 34 30" fill="none" xmlns="http://www.w3.org/2000/svg">
<path d="M28.9 6.28752H20.9667V5.72085C20.9633 2.9055 18.682 0.62417 15.8667 0.62085H5.1C2.28465 0.62417 0.00332031 2.9055 0 5.72085V12.5209C0.00332031 15.3362 2.28465 17.6175 5.1 17.6209H5.66667V22.1542C5.66667 22.3833 5.80474 22.59 6.01641 22.6777C6.22808 22.7654 6.47184 22.7167 6.63398 22.5548L11.568 17.6209H13.0333V18.1875C13.0367 21.0029 15.318 23.2842 18.1333 23.2875H21.2987L27.366 29.3548C27.5282 29.5167 27.7719 29.5654 27.9836 29.4777C28.1953 29.39 28.3333 29.1833 28.3333 28.9542V23.2875H28.9C31.7153 23.2842 33.9967 21.0029 34 18.1875V11.3875C33.9967 8.57217 31.7153 6.29084 28.9 6.28752ZM11.3333 16.4875C11.1831 16.4875 11.0389 16.5473 10.9327 16.6535L6.8 20.7862V17.0542C6.8 16.7412 6.54627 16.4875 6.23333 16.4875H5.1C2.91025 16.485 1.13582 14.7106 1.13333 12.5209V5.72085C1.13582 3.5311 2.91025 1.75667 5.1 1.75418H15.8667C18.0564 1.75667 19.8308 3.5311 19.8333 5.72085V6.28752H18.1333C15.318 6.29084 13.0367 8.57217 13.0333 11.3875V16.4875H11.3333ZM32.8667 18.1875C32.8642 20.3773 31.0897 22.1517 28.9 22.1542H27.7667C27.4537 22.1542 27.2 22.4079 27.2 22.7209V27.5862L21.934 22.3202C21.8277 22.214 21.6836 22.1542 21.5333 22.1542H18.1333C15.9436 22.1517 14.1692 20.3773 14.1667 18.1875V11.3875C14.1692 9.19777 15.9436 7.42334 18.1333 7.42085H28.9C31.0897 7.42334 32.8642 9.19777 32.8667 11.3875V18.1875Z" fill="#3F4B65"/>
<path d="M30.0331 10.8208H16.9998C16.6868 10.8208 16.4331 11.0745 16.4331 11.3875C16.4331 11.7004 16.6868 11.9541 16.9998 11.9541H30.0331C30.346 11.9541 30.5998 11.7004 30.5998 11.3875C30.5998 11.0745 30.346 10.8208 30.0331 10.8208Z" fill="#3F4B65"/>
<path d="M30.0331 14.2208H16.9998C16.6868 14.2208 16.4331 14.4746 16.4331 14.7875C16.4331 15.1004 16.6868 15.3541 16.9998 15.3541H30.0331C30.346 15.3541 30.5998 15.1004 30.5998 14.7875C30.5998 14.4746 30.346 14.2208 30.0331 14.2208Z" fill="#3F4B65"/>
<path d="M30.0331 17.6208H16.9998C16.6868 17.6208 16.4331 17.8746 16.4331 18.1875C16.4331 18.5005 16.6868 18.7542 16.9998 18.7542H30.0331C30.346 18.7542 30.5998 18.5005 30.5998 18.1875C30.5998 17.8746 30.346 17.6208 30.0331 17.6208Z" fill="#3F4B65"/>
<path d="M3.40016 6.28751H15.3002C15.6131 6.28751 15.8668 6.03378 15.8668 5.72084C15.8668 5.4079 15.6131 5.15417 15.3002 5.15417H3.40016C3.08722 5.15417 2.8335 5.4079 2.8335 5.72084C2.8335 6.03378 3.08722 6.28751 3.40016 6.28751Z" fill="#3F4B65"/>
<path d="M11.9002 8.5542H3.40016C3.08722 8.5542 2.8335 8.80793 2.8335 9.12087C2.8335 9.43381 3.08722 9.68753 3.40016 9.68753H11.9002C12.2131 9.68753 12.4668 9.43381 12.4668 9.12087C12.4668 8.80793 12.2131 8.5542 11.9002 8.5542Z" fill="#3F4B65"/>
<path d="M11.3335 11.9542H3.40016C3.08722 11.9542 2.8335 12.208 2.8335 12.5209C2.8335 12.8338 3.08722 13.0876 3.40016 13.0876H11.3335C11.6464 13.0876 11.9002 12.8338 11.9002 12.5209C11.9002 12.208 11.6464 11.9542 11.3335 11.9542Z" fill="#3F4B65"/>
</svg>
