<svg width="126" height="119" viewBox="0 0 126 119" fill="none" xmlns="http://www.w3.org/2000/svg">
<path d="M2.61894 118.008C4.05995 118.008 5.22811 116.84 5.22811 115.399C5.22811 113.958 4.05995 112.789 2.61894 112.789C1.17793 112.789 0.00976562 113.958 0.00976562 115.399C0.00976562 116.84 1.17793 118.008 2.61894 118.008Z" fill="#27E4B6"/>
<path d="M2.61894 95.4578C4.05995 95.4578 5.22811 94.2896 5.22811 92.8486C5.22811 91.4076 4.05995 90.2394 2.61894 90.2394C1.17793 90.2394 0.00976562 91.4076 0.00976562 92.8486C0.00976562 94.2896 1.17793 95.4578 2.61894 95.4578Z" fill="#27E4B6"/>
<path d="M2.61894 72.9055C4.05995 72.9055 5.22811 71.7373 5.22811 70.2963C5.22811 68.8553 4.05995 67.6871 2.61894 67.6871C1.17793 67.6871 0.00976562 68.8553 0.00976562 70.2963C0.00976562 71.7373 1.17793 72.9055 2.61894 72.9055Z" fill="#27E4B6"/>
<path d="M2.61894 50.5412C4.05995 50.5412 5.22811 49.373 5.22811 47.932C5.22811 46.491 4.05995 45.3228 2.61894 45.3228C1.17793 45.3228 0.00976562 46.491 0.00976562 47.932C0.00976562 49.373 1.17793 50.5412 2.61894 50.5412Z" fill="#27E4B6"/>
<path d="M2.61894 27.9918C4.05995 27.9918 5.22811 26.8236 5.22811 25.3826C5.22811 23.9416 4.05995 22.7734 2.61894 22.7734C1.17793 22.7734 0.00976562 23.9416 0.00976562 25.3826C0.00976562 26.8236 1.17793 27.9918 2.61894 27.9918Z" fill="#27E4B6"/>
<path d="M2.61992 5.62771C4.06092 5.62771 5.22909 4.45954 5.22909 3.01854C5.22909 1.57753 4.06092 0.409363 2.61992 0.409363C1.17891 0.409363 0.0107422 1.57753 0.0107422 3.01854C0.0107422 4.45954 1.17891 5.62771 2.61992 5.62771Z" fill="#27E4B6"/>
<path d="M123.39 118.006C124.831 118.006 126 116.838 126 115.397C126 113.956 124.831 112.788 123.39 112.788C121.949 112.788 120.781 113.956 120.781 115.397C120.781 116.838 121.949 118.006 123.39 118.006Z" fill="#27E4B6"/>
<path d="M123.39 95.4564C124.831 95.4564 126 94.2882 126 92.8472C126 91.4062 124.831 90.238 123.39 90.238C121.949 90.238 120.781 91.4062 120.781 92.8472C120.781 94.2882 121.949 95.4564 123.39 95.4564Z" fill="#27E4B6"/>
<path d="M123.39 72.9043C124.831 72.9043 126 71.7361 126 70.2951C126 68.8541 124.831 67.6859 123.39 67.6859C121.949 67.6859 120.781 68.8541 120.781 70.2951C120.781 71.7361 121.949 72.9043 123.39 72.9043Z" fill="#27E4B6"/>
<path d="M123.39 50.5396C124.831 50.5396 126 49.3714 126 47.9304C126 46.4894 124.831 45.3212 123.39 45.3212C121.949 45.3212 120.781 46.4894 120.781 47.9304C120.781 49.3714 121.949 50.5396 123.39 50.5396Z" fill="#27E4B6"/>
<path d="M123.39 27.9902C124.831 27.9902 126 26.822 126 25.381C126 23.94 124.831 22.7719 123.39 22.7719C121.949 22.7719 120.781 23.94 120.781 25.381C120.781 26.822 121.949 27.9902 123.39 27.9902Z" fill="#27E4B6"/>
<path d="M123.39 5.62606C124.831 5.62606 126 4.4579 126 3.01689C126 1.57588 124.831 0.407715 123.39 0.407715C121.949 0.407715 120.781 1.57588 120.781 3.01689C120.781 4.4579 121.949 5.62606 123.39 5.62606Z" fill="#27E4B6"/>
<path d="M99.3484 118.006C100.789 118.006 101.958 116.838 101.958 115.397C101.958 113.956 100.789 112.788 99.3484 112.788C97.9074 112.788 96.7393 113.956 96.7393 115.397C96.7393 116.838 97.9074 118.006 99.3484 118.006Z" fill="#27E4B6"/>
<path d="M99.3484 95.4564C100.789 95.4564 101.958 94.2882 101.958 92.8472C101.958 91.4062 100.789 90.238 99.3484 90.238C97.9074 90.238 96.7393 91.4062 96.7393 92.8472C96.7393 94.2882 97.9074 95.4564 99.3484 95.4564Z" fill="#27E4B6"/>
<path d="M99.3484 72.9043C100.789 72.9043 101.958 71.7361 101.958 70.2951C101.958 68.8541 100.789 67.6859 99.3484 67.6859C97.9074 67.6859 96.7393 68.8541 96.7393 70.2951C96.7393 71.7361 97.9074 72.9043 99.3484 72.9043Z" fill="#27E4B6"/>
<path d="M99.3484 50.5396C100.789 50.5396 101.958 49.3714 101.958 47.9304C101.958 46.4894 100.789 45.3212 99.3484 45.3212C97.9074 45.3212 96.7393 46.4894 96.7393 47.9304C96.7393 49.3714 97.9074 50.5396 99.3484 50.5396Z" fill="#27E4B6"/>
<path d="M99.3484 27.9902C100.789 27.9902 101.958 26.822 101.958 25.381C101.958 23.94 100.789 22.7719 99.3484 22.7719C97.9074 22.7719 96.7393 23.94 96.7393 25.381C96.7393 26.822 97.9074 27.9902 99.3484 27.9902Z" fill="#27E4B6"/>
<path d="M99.3475 5.62606C100.788 5.62606 101.957 4.4579 101.957 3.01689C101.957 1.57588 100.788 0.407715 99.3475 0.407715C97.9064 0.407715 96.7383 1.57588 96.7383 3.01689C96.7383 4.4579 97.9064 5.62606 99.3475 5.62606Z" fill="#27E4B6"/>
<path d="M75.1204 118.006C76.5614 118.006 77.7296 116.838 77.7296 115.397C77.7296 113.956 76.5614 112.788 75.1204 112.788C73.6794 112.788 72.5112 113.956 72.5112 115.397C72.5112 116.838 73.6794 118.006 75.1204 118.006Z" fill="#27E4B6"/>
<path d="M75.1204 95.4564C76.5614 95.4564 77.7296 94.2882 77.7296 92.8472C77.7296 91.4062 76.5614 90.238 75.1204 90.238C73.6794 90.238 72.5112 91.4062 72.5112 92.8472C72.5112 94.2882 73.6794 95.4564 75.1204 95.4564Z" fill="#27E4B6"/>
<path d="M75.1204 72.9043C76.5614 72.9043 77.7296 71.7361 77.7296 70.2951C77.7296 68.8541 76.5614 67.6859 75.1204 67.6859C73.6794 67.6859 72.5112 68.8541 72.5112 70.2951C72.5112 71.7361 73.6794 72.9043 75.1204 72.9043Z" fill="#27E4B6"/>
<path d="M75.1204 50.5396C76.5614 50.5396 77.7296 49.3714 77.7296 47.9304C77.7296 46.4894 76.5614 45.3212 75.1204 45.3212C73.6794 45.3212 72.5112 46.4894 72.5112 47.9304C72.5112 49.3714 73.6794 50.5396 75.1204 50.5396Z" fill="#27E4B6"/>
<path d="M75.1204 27.9902C76.5614 27.9902 77.7296 26.822 77.7296 25.381C77.7296 23.94 76.5614 22.7719 75.1204 22.7719C73.6794 22.7719 72.5112 23.94 72.5112 25.381C72.5112 26.822 73.6794 27.9902 75.1204 27.9902Z" fill="#27E4B6"/>
<path d="M75.1194 5.62606C76.5604 5.62606 77.7286 4.4579 77.7286 3.01689C77.7286 1.57588 76.5604 0.407715 75.1194 0.407715C73.6784 0.407715 72.5103 1.57588 72.5103 3.01689C72.5103 4.4579 73.6784 5.62606 75.1194 5.62606Z" fill="#27E4B6"/>
<path d="M50.8924 118.006C52.3334 118.006 53.5016 116.838 53.5016 115.397C53.5016 113.956 52.3334 112.788 50.8924 112.788C49.4514 112.788 48.2832 113.956 48.2832 115.397C48.2832 116.838 49.4514 118.006 50.8924 118.006Z" fill="#27E4B6"/>
<path d="M50.8924 95.4564C52.3334 95.4564 53.5016 94.2882 53.5016 92.8472C53.5016 91.4062 52.3334 90.238 50.8924 90.238C49.4514 90.238 48.2832 91.4062 48.2832 92.8472C48.2832 94.2882 49.4514 95.4564 50.8924 95.4564Z" fill="#27E4B6"/>
<path d="M50.8924 72.9043C52.3334 72.9043 53.5016 71.7361 53.5016 70.2951C53.5016 68.8541 52.3334 67.6859 50.8924 67.6859C49.4514 67.6859 48.2832 68.8541 48.2832 70.2951C48.2832 71.7361 49.4514 72.9043 50.8924 72.9043Z" fill="#27E4B6"/>
<path d="M50.8924 50.5396C52.3334 50.5396 53.5016 49.3714 53.5016 47.9304C53.5016 46.4894 52.3334 45.3212 50.8924 45.3212C49.4514 45.3212 48.2832 46.4894 48.2832 47.9304C48.2832 49.3714 49.4514 50.5396 50.8924 50.5396Z" fill="#27E4B6"/>
<path d="M50.8924 27.9902C52.3334 27.9902 53.5016 26.822 53.5016 25.381C53.5016 23.94 52.3334 22.7719 50.8924 22.7719C49.4514 22.7719 48.2832 23.94 48.2832 25.381C48.2832 26.822 49.4514 27.9902 50.8924 27.9902Z" fill="#27E4B6"/>
<path d="M50.8914 5.62606C52.3324 5.62606 53.5006 4.4579 53.5006 3.01689C53.5006 1.57588 52.3324 0.407715 50.8914 0.407715C49.4504 0.407715 48.2822 1.57588 48.2822 3.01689C48.2822 4.4579 49.4504 5.62606 50.8914 5.62606Z" fill="#27E4B6"/>
<path d="M26.6648 118.006C28.1058 118.006 29.274 116.838 29.274 115.397C29.274 113.956 28.1058 112.788 26.6648 112.788C25.2238 112.788 24.0557 113.956 24.0557 115.397C24.0557 116.838 25.2238 118.006 26.6648 118.006Z" fill="#27E4B6"/>
<path d="M26.6648 95.4564C28.1058 95.4564 29.274 94.2882 29.274 92.8472C29.274 91.4062 28.1058 90.238 26.6648 90.238C25.2238 90.238 24.0557 91.4062 24.0557 92.8472C24.0557 94.2882 25.2238 95.4564 26.6648 95.4564Z" fill="#27E4B6"/>
<path d="M26.6648 72.9043C28.1058 72.9043 29.274 71.7361 29.274 70.2951C29.274 68.8541 28.1058 67.6859 26.6648 67.6859C25.2238 67.6859 24.0557 68.8541 24.0557 70.2951C24.0557 71.7361 25.2238 72.9043 26.6648 72.9043Z" fill="#27E4B6"/>
<path d="M26.6648 50.5396C28.1058 50.5396 29.274 49.3714 29.274 47.9304C29.274 46.4894 28.1058 45.3212 26.6648 45.3212C25.2238 45.3212 24.0557 46.4894 24.0557 47.9304C24.0557 49.3714 25.2238 50.5396 26.6648 50.5396Z" fill="#27E4B6"/>
<path d="M26.6648 27.9902C28.1058 27.9902 29.274 26.822 29.274 25.381C29.274 23.94 28.1058 22.7719 26.6648 22.7719C25.2238 22.7719 24.0557 23.94 24.0557 25.381C24.0557 26.822 25.2238 27.9902 26.6648 27.9902Z" fill="#27E4B6"/>
<path d="M26.6634 5.62606C28.1044 5.62606 29.2725 4.4579 29.2725 3.01689C29.2725 1.57588 28.1044 0.407715 26.6634 0.407715C25.2224 0.407715 24.0542 1.57588 24.0542 3.01689C24.0542 4.4579 25.2224 5.62606 26.6634 5.62606Z" fill="#27E4B6"/>
</svg>
